<svg xmlns="http://www.w3.org/2000/svg" width="302" height="174" fill="none"><g clip-path="url(#a)"><path fill="url(#b)" d="M276.5 173.5h-251c-13.81 0-25-11.19-25-25v-123c0-13.81 11.19-25 25-25h251c13.81 0 25 11.19 25 25v123c0 13.81-11.19 25-25 25Z"/><path stroke="#535353" stroke-linecap="round" stroke-miterlimit="10" stroke-width=".75" d="M198.4 57.29c-8.38.01-12.83 6.79-14.49 14.26-1.75 7.84-1.41 15.93-.92 23.88.35 5.61.62 12.98-3.9 17.13-2.64 2.42-6.31 3.32-9.81 3.32M99.18 76.9c8.38.01 12.83 6.79 14.49 14.26 1.75 7.84 1.41 15.93.92 23.88-.35 5.61-.62 12.98 3.9 17.13 2.64 2.42 6.31 3.32 9.81 3.32"/><path fill="#535353" d="M228.34 90.63c15.597 0 28.24-12.643 28.24-28.24 0-15.596-12.643-28.24-28.24-28.24-15.596 0-28.24 12.644-28.24 28.24 0 15.597 12.644 28.24 28.24 28.24Z"/><path stroke="#535353" stroke-miterlimit="10" stroke-width=".75" d="M226.64 88.92c15.597 0 28.24-12.644 28.24-28.24 0-15.596-12.643-28.24-28.24-28.24-15.596 0-28.24 12.644-28.24 28.24 0 15.596 12.644 28.24 28.24 28.24Z"/><path fill="url(#c)" stroke="#535353" stroke-miterlimit="10" stroke-width=".75" d="M230.53 92.48c15.597 0 28.24-12.644 28.24-28.24 0-15.596-12.643-28.24-28.24-28.24-15.596 0-28.24 12.644-28.24 28.24 0 15.597 12.644 28.24 28.24 28.24Z"/><path fill="#535353" d="M149.28 145.18c15.597 0 28.24-12.643 28.24-28.24 0-15.597-12.643-28.24-28.24-28.24-15.596 0-28.24 12.643-28.24 28.24 0 15.597 12.644 28.24 28.24 28.24Z"/><path stroke="#535353" stroke-miterlimit="10" stroke-width=".75" d="M147.58 143.48c15.597 0 28.24-12.643 28.24-28.24 0-15.596-12.643-28.24-28.24-28.24-15.596 0-28.24 12.644-28.24 28.24 0 15.597 12.644 28.24 28.24 28.24Z"/><path fill="url(#d)" stroke="#535353" stroke-miterlimit="10" stroke-width=".75" d="M151.47 147.04c15.597 0 28.24-12.643 28.24-28.24 0-15.597-12.643-28.24-28.24-28.24-15.596 0-28.24 12.643-28.24 28.24 0 15.597 12.644 28.24 28.24 28.24Z"/><path fill="#535353" d="M80.24 106.07c15.597 0 28.24-12.643 28.24-28.24 0-15.596-12.644-28.24-28.24-28.24C64.644 49.59 52 62.233 52 77.83c0 15.597 12.644 28.24 28.24 28.24Z"/><path stroke="#535353" stroke-miterlimit="10" stroke-width=".75" d="M78.54 104.36c15.597 0 28.24-12.644 28.24-28.24 0-15.597-12.643-28.24-28.24-28.24-15.597 0-28.24 12.643-28.24 28.24 0 15.596 12.644 28.24 28.24 28.24Z"/><path fill="url(#e)" stroke="#535353" stroke-miterlimit="10" stroke-width=".75" d="M82.43 107.92c15.597 0 28.24-12.644 28.24-28.24 0-15.597-12.643-28.24-28.24-28.24-15.597 0-28.24 12.644-28.24 28.24 0 15.596 12.644 28.24 28.24 28.24Z"/><path fill="#535353" d="M161.47 118.6v.39c-.12.54-.47.88-.94 1.12-.28.15-.55.32-.85.5.3.18.57.35.85.5.47.25.82.58.94 1.12v.43c-.14.54-.52.85-.98 1.12-2.51 1.47-5.02 2.95-7.53 4.43-.4.24-.79.5-1.26.59h-.51c-.24-.1-.49-.17-.71-.3-2.21-1.29-4.41-2.59-6.61-3.88-.57-.33-1.13-.67-1.69-1.01-.57-.34-.81-.89-.67-1.49.09-.4.34-.68.69-.88.35-.2.69-.41 1.06-.62-.4-.24-.79-.46-1.16-.7-.84-.55-.84-1.7.01-2.25.13-.09.27-.16.4-.24.24-.14.49-.29.75-.44-.37-.22-.72-.4-1.04-.63-.22-.15-.44-.34-.57-.57-.39-.65-.12-1.41.6-1.84 2.74-1.61 5.47-3.22 8.21-4.83.69-.41 1.37-.41 2.06 0 2.66 1.57 5.32 3.14 7.99 4.7.46.27.84.58.98 1.12v.43c-.1.41-.32.75-.69.97l-.6.36c-.16.09-.31.19-.5.3.3.18.56.35.84.49.46.22.81.56.93 1.11Zm-10 2.04c.18-.07.35-.1.5-.19l8.31-4.89c.39-.23.38-.59 0-.82-2.76-1.63-5.53-3.25-8.29-4.88-.35-.2-.69-.2-1.03 0-2.76 1.62-5.52 3.25-8.27 4.87-.41.24-.41.6 0 .84 2.76 1.62 5.51 3.25 8.28 4.87.14.1.32.14.5.2Zm0 7.28c.18-.07.36-.11.52-.21 2.76-1.62 5.51-3.24 8.26-4.86.42-.25.41-.6-.01-.85-.43-.25-.86-.5-1.28-.75-.13-.08-.22-.08-.35 0-2.03 1.2-4.07 2.39-6.11 3.59-.7.42-1.38.42-2.08.01-2.04-1.21-4.08-2.4-6.12-3.6-.09-.05-.16-.1-.28-.03-.45.28-.92.54-1.38.82-.37.23-.37.59.01.81l8.31 4.89c.16.08.33.11.51.18Zm0-3.64c.18-.07.36-.11.51-.2 2.76-1.62 5.52-3.24 8.28-4.87.41-.24.41-.6 0-.84-.43-.26-.87-.5-1.29-.77-.13-.08-.22-.08-.35 0-2.03 1.2-4.07 2.39-6.11 3.59-.7.42-1.38.42-2.08 0-2.04-1.21-4.08-2.4-6.12-3.6-.11-.07-.2-.08-.31 0-.44.27-.89.52-1.33.79-.39.23-.39.59-.01.82l8.31 4.89c.15.09.32.13.5.19ZM86.21 84.43c-3.65 3.04-8.8 2.46-11.71-.87a8.338 8.338 0 0 1 .22-11.28c2.95-3.12 7.82-3.48 11.2-.85 3.64 2.83 4.43 8.32 1.27 12.02 1.75 1.75 3.51 3.51 5.25 5.24-.34.34-.66.66-.99.98-1.73-1.72-3.48-3.47-5.24-5.24ZM80.8 71.06c-3.85 0-7 3.13-7 6.98-.01 3.86 3.14 7.01 7 7.01 3.85 0 6.99-3.15 6.99-6.99 0-3.85-3.15-7-6.99-7Zm159.73-5.69c-.01.03-.03.06-.04.09-.16.57-.55.88-1.13.96-.44.06-.89.11-1.34.16-.12.01-.18.06-.22.17-.11.29-.23.58-.36.86-.05.11-.03.18.04.26l.84 1.08c.44.57.4 1.22-.11 1.73-.41.42-.83.83-1.24 1.24-.51.5-1.16.54-1.73.1l-1.08-.84c-.09-.07-.15-.08-.26-.03-.28.13-.56.25-.85.35-.13.05-.18.12-.19.25-.05.48-.11.97-.19 1.45-.1.61-.6 1.02-1.22 1.03-.6.01-1.2 0-1.8 0-.73 0-1.23-.45-1.32-1.17-.05-.45-.11-.89-.16-1.34-.01-.11-.06-.17-.16-.21-.29-.11-.58-.23-.86-.36-.1-.05-.17-.05-.26.03-.36.29-.73.57-1.09.85-.57.43-1.22.39-1.73-.12l-1.23-1.23c-.51-.51-.55-1.16-.12-1.73l.84-1.08c.07-.09.09-.16.03-.28-.13-.28-.25-.56-.35-.85-.05-.12-.11-.17-.24-.18-.45-.05-.9-.1-1.36-.17-.69-.09-1.13-.6-1.13-1.3v-1.76c0-.72.45-1.22 1.16-1.31.45-.06.89-.11 1.34-.16.12-.01.18-.06.22-.18.11-.29.22-.57.35-.85.05-.11.05-.18-.03-.28l-.84-1.08c-.44-.57-.4-1.22.11-1.73.41-.42.83-.83 1.24-1.24.5-.5 1.15-.54 1.71-.12l1.08.84c.1.08.17.09.29.04.27-.13.55-.24.83-.34.13-.05.18-.12.19-.25.05-.45.1-.89.16-1.34.08-.58.4-.96.98-1.11.02-.01.05-.02.07-.03h2.27c.02.01.05.03.07.03.56.14.88.51.97 1.07.07.46.12.92.17 1.37.01.14.07.2.2.25.28.1.56.21.83.34.12.06.2.04.29-.04.35-.28.71-.55 1.06-.83.57-.44 1.22-.4 1.73.11.42.41.83.83 1.24 1.24.5.51.54 1.16.11 1.73-.28.37-.57.73-.85 1.1-.04.05-.05.16-.03.22.11.3.24.6.38.9.03.07.12.14.19.15.35.06.71.09 1.06.13.37.05.74.09 1.03.35.22.2.33.46.42.73.02.82.02 1.58.02 2.33Zm-10.01 8.04h.84c.34 0 .48-.13.53-.47.07-.55.14-1.1.2-1.65.03-.24.14-.38.38-.46.45-.17.9-.35 1.33-.55.24-.11.42-.1.63.06.43.34.86.67 1.29 1.01.28.22.45.21.7-.04l1.17-1.17c.25-.25.26-.42.05-.7-.35-.45-.69-.9-1.04-1.34-.14-.17-.14-.34-.05-.54.2-.46.4-.92.57-1.38.08-.22.22-.34.45-.36.56-.07 1.11-.13 1.67-.21.32-.04.46-.19.46-.52v-1.68c0-.33-.13-.47-.46-.52l-1.67-.21c-.23-.03-.37-.14-.45-.37-.17-.46-.35-.91-.56-1.35-.11-.23-.1-.41.06-.61.34-.43.67-.86 1.01-1.29.23-.29.22-.46-.04-.71l-1.16-1.16c-.26-.26-.42-.27-.71-.05-.44.34-.89.69-1.32 1.03-.18.14-.35.14-.56.05-.45-.2-.9-.4-1.37-.57-.23-.09-.35-.23-.38-.46-.06-.55-.13-1.1-.2-1.65-.04-.34-.19-.47-.53-.47h-1.66c-.34 0-.49.13-.53.47-.07.55-.14 1.1-.2 1.65-.03.24-.14.38-.38.46-.46.17-.91.35-1.35.56-.22.1-.4.1-.59-.05-.44-.35-.89-.7-1.34-1.04-.25-.19-.43-.18-.65.05-.4.39-.79.79-1.19 1.19-.26.26-.27.42-.04.71.34.43.67.87 1.01 1.29.16.2.16.38.06.61-.2.43-.39.87-.55 1.31-.09.26-.24.38-.5.41-.54.06-1.08.13-1.63.2-.33.04-.46.19-.46.52v1.68c0 .33.13.47.46.52.55.07 1.1.14 1.65.2.25.03.39.15.48.39.16.45.35.9.55 1.33.11.23.1.41-.06.61-.34.43-.67.86-1.01 1.29-.23.29-.22.45.04.71l1.15 1.15c.28.28.44.29.76.04.43-.34.86-.67 1.29-1.01.17-.13.34-.15.54-.06.46.2.92.4 1.38.58.24.09.35.24.38.48.06.55.13 1.1.2 1.65.04.32.19.44.51.45.28-.01.56-.01.84-.01Z"/><path fill="#535353" d="M230.4 68.41c-2.33-.11-4.14-2.04-4.04-4.3.1-2.32 2.04-4.13 4.29-4.03 2.33.1 4.15 2.04 4.04 4.3-.11 2.32-2.04 4.13-4.29 4.03Zm3.46-4.17a3.32 3.32 0 0 0-3.32-3.33c-1.84 0-3.33 1.47-3.34 3.32a3.318 3.318 0 0 0 3.33 3.34c1.84 0 3.33-1.48 3.33-3.33Z"/></g><defs><linearGradient id="b" x1="151" x2="151" y1=".5" y2="173.5" gradientUnits="userSpaceOnUse"><stop stop-color="#7CE1FF" stop-opacity=".9"/><stop offset="1" stop-color="#7CE1FF" stop-opacity="0"/></linearGradient><linearGradient id="c" x1="212.522" x2="248.854" y1="88.304" y2="39.752" gradientUnits="userSpaceOnUse"><stop offset="0" stop-color="#FAF8F7"/><stop offset=".12" stop-color="#E8E4F8"/><stop offset=".389" stop-color="#C6BBFB"/><stop offset=".635" stop-color="#AD9EFD"/><stop offset=".846" stop-color="#9D8CFE"/><stop offset="1" stop-color="#9886FE"/></linearGradient><linearGradient id="d" x1="133.461" x2="169.792" y1="142.86" y2="94.308" gradientUnits="userSpaceOnUse"><stop offset="0" stop-color="#FAF8F7"/><stop offset=".215" stop-color="#FCEECD"/><stop offset=".455" stop-color="#FDE5A4"/><stop offset=".674" stop-color="#FEDE87"/><stop offset=".863" stop-color="#FFD975"/><stop offset="1" stop-color="#FFD86F"/></linearGradient><linearGradient id="e" x1="64.42" x2="100.751" y1="103.745" y2="55.194" gradientUnits="userSpaceOnUse"><stop offset="0" stop-color="#FAF8F7"/><stop offset=".175" stop-color="#DAF2F9"/><stop offset=".427" stop-color="#B1EBFC"/><stop offset=".658" stop-color="#94E5FD"/><stop offset=".856" stop-color="#82E2FF"/><stop offset="1" stop-color="#7CE1FF"/></linearGradient><clipPath id="a"><path fill="#fff" d="M.5.5h301v173H.5z"/></clipPath></defs></svg>