<svg xmlns="http://www.w3.org/2000/svg" width="302" height="174" fill="none"><g clip-path="url(#a)"><path fill="url(#b)" d="M276.5 173.5h-251c-13.81 0-25-11.19-25-25v-123c0-13.81 11.19-25 25-25h251c13.81 0 25 11.19 25 25v123c0 13.81-11.19 25-25 25Z"/><path fill="#535353" d="m122.44 113.61.11-4.11-4.54.75-12.63-8.58c-.24-.16-.5-.3-.78-.43-.28-.12-.59-.23-.91-.31-.32-.08-.66-.15-1.01-.19a9.48 9.48 0 0 0-1.08-.07H64.28c-.83 0-1.67.11-2.46.31-.8.2-1.56.48-2.24.84-.68.35-1.29.78-1.78 1.25s-.86.99-1.07 1.54l-6.55 16.89-1.6.26v4c-.08.4-.08.79 0 1.15.12.53.41 1.01.84 1.41.43.4 1 .73 1.69.96.69.23 1.49.35 2.38.35h40.66c.4 0 .8-.03 1.2-.08.4-.05.8-.12 1.19-.22a9.458 9.458 0 0 0 2.21-.85l22.15-11.9c.48-.26.87-.57 1.15-.9.28-.33.46-.69.53-1.04.05-.35.01-.71-.14-1.03Z"/><path fill="url(#c)" d="M101.61 95.52H64.28c-.83 0-1.67.11-2.46.31-.8.2-1.56.48-2.24.84-.68.35-1.29.78-1.78 1.25s-.86.99-1.07 1.54l-7.99 20.58c-.24.61-.28 1.19-.16 1.71.12.53.41 1.01.84 1.41.43.4 1 .73 1.69.96.69.23 1.49.35 2.38.35h40.66c.4 0 .8-.03 1.2-.08.4-.05.8-.12 1.19-.22a9.458 9.458 0 0 0 2.21-.85l22.15-11.9c.48-.26.87-.57 1.15-.9.28-.33.46-.69.53-1.04.07-.35.03-.71-.11-1.03-.15-.33-.41-.63-.78-.89l-16.27-11.05c-.24-.16-.5-.3-.78-.43-.28-.12-.59-.23-.91-.31-.32-.08-.66-.15-1.01-.19-.37-.04-.74-.06-1.11-.06Z"/><path fill="#fff" d="M86.63 116.62c10.803 0 19.56-3.34 19.56-7.46s-8.757-7.46-19.56-7.46c-10.803 0-19.56 3.34-19.56 7.46s8.757 7.46 19.56 7.46Z"/><path fill="#535353" d="M86.63 112.5c4.833 0 8.75-1.495 8.75-3.34 0-1.845-3.917-3.34-8.75-3.34-4.832 0-8.75 1.495-8.75 3.34 0 1.845 3.918 3.34 8.75 3.34Z"/><path fill="url(#d)" d="m115.22 101.12 13.75 9.25c.4.27.75.57 1.04.89.29.32.52.67.7 1.03.17.36.29.75.34 1.14.05.39.04.8-.04 1.21-.08.41-.22.82-.43 1.22-.2.4-.47.79-.79 1.16-.32.37-.69.73-1.12 1.06-.42.33-.9.64-1.41.92l-2.54 1.38-16.12 3.58v5.15c.21.08.42.16.65.22.22.06.46.12.7.16.24.04.49.08.75.1.26.02.52.03.8.03h49.41c.4 0 .8-.03 1.19-.08.39-.05.78-.12 1.16-.22.38-.1.74-.22 1.09-.36.35-.14.69-.31 1-.49l20.43-11.9c.45-.26.79-.57 1.02-.9.23-.33.36-.69.38-1.04v-5.15l-21.62-10.2-50.34-3.32v5.16Z"/><path fill="#535353" d="m115.22 101.12 13.75 9.25c.4.27.75.57 1.04.89.29.32.52.67.7 1.03.17.36.29.75.34 1.14.05.39.04.8-.04 1.21-.08.41-.22.82-.43 1.22-.2.4-.47.79-.79 1.16-.32.37-.69.73-1.12 1.06-.42.33-.9.64-1.41.92l-2.54 1.38-16.12 3.58v5.15c.21.08.42.16.65.22.22.06.46.12.7.16.24.04.49.08.75.1.26.02.52.03.8.03h49.41c.4 0 .8-.03 1.19-.08.39-.05.78-.12 1.16-.22.38-.1.74-.22 1.09-.36.35-.14.69-.31 1-.49l20.43-11.9c.45-.26.79-.57 1.02-.9.23-.33.36-.69.38-1.04v-5.15l-21.62-10.2-50.34-3.32v5.16Z"/><path fill="url(#e)" d="M164.23 95.52h-46.09c-.25 0-.51.01-.76.03-.25.02-.5.05-.74.09-.24.04-.49.09-.72.14-.24.06-.47.12-.7.19l13.75 9.25c.4.27.75.57 1.04.89.29.32.52.67.7 1.03.17.36.29.75.34 1.14.05.39.04.8-.04 1.21-.08.41-.22.82-.43 1.22-.2.4-.47.79-.79 1.16-.32.37-.69.73-1.12 1.06-.42.33-.9.64-1.41.92l-18.66 10.1c.21.08.42.16.65.22.22.06.46.12.7.16.24.04.49.08.75.1.26.02.52.03.8.03h49.41c.4 0 .8-.03 1.19-.08.39-.05.78-.12 1.16-.22.38-.1.74-.22 1.09-.36.35-.14.69-.31 1-.49l20.43-11.9c.45-.26.79-.57 1.02-.9.23-.33.36-.69.38-1.04.02-.35-.07-.71-.26-1.03-.19-.33-.5-.63-.91-.89L168.15 96.5c-.26-.16-.54-.3-.84-.43-.3-.12-.62-.23-.95-.31-.33-.08-.68-.15-1.04-.19-.35-.03-.72-.05-1.09-.05Z"/><path fill="#fff" d="M153.42 116.62c10.803 0 19.56-3.34 19.56-7.46s-8.757-7.46-19.56-7.46c-10.803 0-19.56 3.34-19.56 7.46s8.757 7.46 19.56 7.46Z"/><path fill="#535353" d="M153.42 112.5c4.833 0 8.75-1.495 8.75-3.34 0-1.845-3.917-3.34-8.75-3.34-4.832 0-8.75 1.495-8.75 3.34 0 1.845 3.918 3.34 8.75 3.34Zm26.13-12.6 15.73 10.47c.4.27.75.57 1.04.89.29.32.52.67.7 1.03.17.36.29.75.34 1.14.05.39.04.8-.04 1.21-.08.41-.22.82-.42 1.22-.2.4-.47.79-.79 1.16-.32.37-.69.73-1.12 1.06-.42.33-.9.64-1.41.92l-2.54 1.38-13.99 3.58.05 5.42c2.07.83 8.75.39 52.69.25.4 0 .8-.03 1.19-.08.39-.05.78-.12 1.16-.22.38-.1.74-.22 1.09-.36.35-.14.69-.31 1-.49l17.86-11.9c.45-.26.79-.57 1.02-.9.23-.33.36-.69.38-1.04v-5.15l-21.62-10.2-52.34-3.32.02 3.93Z"/><path fill="url(#f)" d="M228.46 95.52h-46.08a9.216 9.216 0 0 0-1.48.12c-.24.04-.47.09-.7.14-.23.06-.45.12-.67.19l15.12 9.25c.44.27.83.57 1.17.89.34.32.62.67.85 1.03.23.36.4.75.51 1.14.11.39.16.8.14 1.21-.02.41-.1.82-.24 1.22-.14.4-.35.79-.61 1.16-.26.37-.58.73-.96 1.06-.37.33-.8.64-1.28.92l-17.17 10.1c.22.08.44.16.68.22a8.363 8.363 0 0 0 1.49.26c.26.02.53.03.8.03h49.4c.4 0 .79-.03 1.18-.08a7.927 7.927 0 0 0 2.16-.58c.33-.14.64-.31.93-.49l18.68-11.9c.41-.26.7-.57.89-.9.18-.33.26-.69.23-1.04-.03-.35-.17-.71-.42-1.03-.24-.33-.59-.63-1.04-.89L232.55 96.5c-.28-.16-.59-.3-.91-.43-.32-.12-.65-.23-1-.31-.34-.08-.7-.15-1.06-.19-.38-.03-.75-.05-1.12-.05Z"/><path fill="#fff" d="M220.22 116.62c10.803 0 19.56-3.34 19.56-7.46s-8.757-7.46-19.56-7.46c-10.803 0-19.56 3.34-19.56 7.46s8.757 7.46 19.56 7.46Z"/><path fill="#535353" d="M220.22 112.5c4.833 0 8.75-1.495 8.75-3.34 0-1.845-3.917-3.34-8.75-3.34-4.832 0-8.75 1.495-8.75 3.34 0 1.845 3.918 3.34 8.75 3.34Z"/><path fill="url(#g)" d="M86.63 81.62c11.018 0 19.95-8.932 19.95-19.95 0-11.018-8.932-19.95-19.95-19.95-11.018 0-19.95 8.932-19.95 19.95 0 11.018 8.932 19.95 19.95 19.95Z"/><path fill="#fff" stroke="#535353" stroke-miterlimit="10" stroke-width=".75" d="M86.63 77.13c8.538 0 15.46-6.922 15.46-15.46s-6.922-15.46-15.46-15.46-15.46 6.922-15.46 15.46 6.922 15.46 15.46 15.46Z"/><path fill="#535353" d="M86.63 84.58C74 84.58 63.72 74.3 63.72 61.67S74 38.76 86.63 38.76s22.91 10.28 22.91 22.91-10.28 22.91-22.91 22.91Zm0-44.79c-12.06 0-21.88 9.82-21.88 21.88 0 12.06 9.82 21.88 21.88 21.88 12.06 0 21.88-9.82 21.88-21.88 0-12.06-9.82-21.88-21.88-21.88Z"/><path fill="#535353" d="M87.14 84.07h-1.03v23.81h1.03V84.07Z"/><path fill="url(#h)" d="M153.42 81.62c11.018 0 19.95-8.932 19.95-19.95 0-11.018-8.932-19.95-19.95-19.95-11.018 0-19.95 8.932-19.95 19.95 0 11.018 8.932 19.95 19.95 19.95Z"/><path fill="#fff" stroke="#535353" stroke-miterlimit="10" stroke-width=".75" d="M153.42 77.13c8.538 0 15.46-6.922 15.46-15.46s-6.922-15.46-15.46-15.46-15.46 6.922-15.46 15.46 6.922 15.46 15.46 15.46Z"/><path fill="#535353" d="M153.42 84.58c-12.63 0-22.91-10.28-22.91-22.91s10.28-22.91 22.91-22.91 22.91 10.28 22.91 22.91-10.27 22.91-22.91 22.91Zm0-44.79c-12.06 0-21.88 9.82-21.88 21.88 0 12.06 9.82 21.88 21.88 21.88 12.06 0 21.88-9.82 21.88-21.88 0-12.06-9.81-21.88-21.88-21.88Z"/><path fill="#535353" d="M153.94 84.07h-1.03v23.81h1.03V84.07Z"/><path fill="url(#i)" d="M220.22 81.62c11.018 0 19.95-8.932 19.95-19.95 0-11.018-8.932-19.95-19.95-19.95-11.018 0-19.95 8.932-19.95 19.95 0 11.018 8.932 19.95 19.95 19.95Z"/><path fill="#fff" stroke="#535353" stroke-miterlimit="10" stroke-width=".75" d="M220.22 77.13c8.538 0 15.46-6.922 15.46-15.46s-6.922-15.46-15.46-15.46-15.46 6.922-15.46 15.46 6.922 15.46 15.46 15.46Z"/><path fill="#535353" d="M220.22 84.58c-12.63 0-22.91-10.28-22.91-22.91s10.28-22.91 22.91-22.91 22.91 10.28 22.91 22.91-10.28 22.91-22.91 22.91Zm0-44.79c-12.06 0-21.88 9.82-21.88 21.88 0 12.06 9.82 21.88 21.88 21.88 12.06 0 21.88-9.82 21.88-21.88 0-12.06-9.82-21.88-21.88-21.88Z"/><path fill="#535353" d="M220.73 84.07h-1.03v23.81h1.03V84.07Zm-59.1-22.58v.32c-.1.41-.39.75-.77.92-.23.12-.45.27-.7.41.25.15.47.29.7.41.39.17.67.51.77.92v.35c-.13.41-.43.74-.82.92-2.07 1.2-4.11 2.42-6.19 3.63-.32.22-.66.39-1.04.49h-.42c-.2-.07-.39-.15-.58-.25l-5.41-3.19-1.4-.82c-.44-.23-.67-.74-.55-1.22.08-.31.28-.57.57-.72l.87-.51c-.34-.21-.65-.38-.95-.58a1.088 1.088 0 0 1 0-1.85l.34-.2.62-.36c-.3-.18-.59-.34-.86-.53-.18-.12-.34-.28-.47-.46a1.09 1.09 0 0 1 .44-1.48l.06-.03 6.74-3.97c.52-.34 1.18-.34 1.7 0 2.19 1.29 4.38 2.57 6.57 3.86.39.17.69.51.82.91v.35c-.06.34-.27.64-.57.82l-.5.3-.4.25c.25.14.46.28.68.39.36.18.65.52.75.92Zm-8.22 1.64c.14-.04.28-.09.41-.16l6.83-4.02c.19-.06.29-.26.23-.44a.333.333 0 0 0-.23-.23l-6.81-4.01a.76.76 0 0 0-.82 0l-6.8 4c-.34.21-.34.49 0 .7 2.26 1.33 4.53 2.67 6.79 3.99.13.08.26.14.39.2l.01-.03Zm0 5.98c.15-.05.29-.1.43-.17 2.26-1.32 4.52-2.65 6.79-3.99.35-.2.34-.49 0-.7l-1.05-.62a.226.226 0 0 0-.29 0l-5.01 2.95c-.52.35-1.19.35-1.71 0-1.64-.99-3.35-1.97-5.04-2.96-.07-.04-.13-.08-.23 0-.37.23-.75.44-1.13.67a.352.352 0 0 0 0 .66l6.83 4.02c.13.06.27.12.41.16v-.02Zm0-2.99c.15-.04.29-.1.43-.16l6.79-4c.34-.2.34-.49 0-.69l-1.06-.62a.256.256 0 0 0-.29 0c-1.64.99-3.34 1.96-5.01 2.96-.52.34-1.19.34-1.71 0-1.64-.99-3.36-1.97-5.04-2.96a.196.196 0 0 0-.25 0l-1.09.65c-.19.06-.29.26-.23.44.03.11.12.2.23.23 2.27 1.34 4.54 2.69 6.83 4.02.13.07.26.13.39.17l.01-.04Zm-63.68-.55a6.87 6.87 0 0 1-9.62-.71 6.869 6.869 0 0 1 .18-9.27 6.895 6.895 0 0 1 9.21-.7 6.89 6.89 0 0 1 1.19 9.67l-.15.18 4.31 4.31-.82.82-4.3-4.3Zm-4.44-10.98c-3.18 0-5.75 2.57-5.75 5.75s2.57 5.75 5.75 5.75 5.75-2.57 5.75-5.75-2.57-5.75-5.75-5.75Zm143.15 7.98v.07c-.09.45-.47.78-.93.82l-1.09.14c-.09 0-.17.05-.19.14-.08.24-.18.48-.3.71-.05.06-.05.15 0 .21l.69.89a1 1 0 0 1-.09 1.42c-.34.34-.67.68-1.02 1.02-.37.41-1 .45-1.42.08l-.89-.68a.166.166 0 0 0-.21 0c-.22.11-.45.21-.69.29-.09.03-.16.11-.16.21-.05.4-.09.82-.16 1.19-.09.48-.52.83-1.01.82h-1.47c-.56.03-1.04-.4-1.08-.96-.05-.37-.09-.73-.13-1.1a.18.18 0 0 0-.14-.17l-.71-.29a.166.166 0 0 0-.21 0c-.3.24-.6.47-.9.7a.998.998 0 0 1-1.41-.1l-1.01-1.01c-.41-.37-.46-.99-.1-1.41l.69-.89a.17.17 0 0 0 0-.23c-.1-.22-.2-.46-.29-.69a.193.193 0 0 0-.19-.15l-1.12-.14c-.54-.05-.95-.52-.93-1.07v-1.44c-.03-.56.4-1.04.95-1.08.37-.05.73-.1 1.1-.13.09 0 .16-.06.18-.15.09-.24.18-.47.29-.7a.18.18 0 0 0 0-.22l-.69-.89a1.02 1.02 0 0 1 .09-1.42l1.03-1.02c.36-.41.99-.45 1.4-.1l.88.69c.07.06.17.06.25 0 .22-.11.45-.2.68-.28.09-.03.16-.11.16-.21 0-.37.08-.73.13-1.1.04-.45.37-.83.82-.91h1.98c.44.08.77.44.82.88.06.38.11.76.15 1.13 0 .1.06.18.16.21.23.08.46.17.68.28.07.06.17.06.24 0l.87-.68a1.02 1.02 0 0 1 1.42.09c.35.34.68.68 1.02 1.02a1 1 0 0 1 .09 1.42l-.7.9c-.02.06-.02.12 0 .18.09.25.19.49.3.74.03.06.09.1.16.12.29.05.58.07.87.12.3.01.58.11.82.29.17.17.28.38.34.61l-.02 1.83Zm-8.22 6.57h.69c.2.04.39-.1.43-.3.01-.03.01-.06.01-.09l.17-1.36c.01-.18.13-.33.3-.38.37-.13.74-.29 1.09-.45.17-.1.37-.08.52.05l1.06.82c.24.18.37.17.58 0l.97-.96c.21-.21.21-.35 0-.58l-.82-1.1a.409.409 0 0 1 0-.45c.17-.37.33-.75.48-1.13.05-.17.2-.29.37-.3l1.37-.17c.2 0 .37-.16.37-.37v-1.44c0-.27-.11-.39-.38-.43l-1.36-.16a.43.43 0 0 1-.37-.3c-.14-.38-.3-.75-.46-1.11-.1-.16-.08-.36.05-.5l.82-1.06c.18-.25.17-.38 0-.59-.17-.21-.64-.63-.95-.95a.367.367 0 0 0-.52-.07c-.03.02-.05.05-.07.07l-1.08.82c-.14.09-.32.09-.46 0-.37-.17-.75-.33-1.13-.47a.417.417 0 0 1-.3-.39l-.17-1.35a.37.37 0 0 0-.35-.39c-.03 0-.06 0-.09.01h-1.36c-.28 0-.39.11-.44.39-.06.45-.12.9-.16 1.35a.44.44 0 0 1-.31.39c-.37.14-.74.29-1.11.46-.15.09-.35.07-.48-.05l-1.1-.82a.349.349 0 0 0-.49-.05c-.02.01-.03.03-.05.05l-.99.97c-.16.12-.2.35-.07.52.02.03.05.05.07.07l.82 1.06c.12.14.14.34.05.5-.16.35-.32.71-.45 1.08-.05.19-.21.33-.41.34l-1.34.16c-.27 0-.38.16-.38.43v1.38c0 .27.11.39.38.43l1.36.16c.18.01.34.14.39.32.14.37.29.73.45 1.09.11.15.11.35 0 .5l-.82 1.06c-.19.25-.18.38 0 .58l.94.94c.24.23.36.24.62 0l1.07-.82c.13-.09.31-.09.44 0 .38.16.76.33 1.13.47.18.05.31.21.31.4.05.44.11.9.17 1.35-.01.2.15.37.35.37h.64Z"/><path fill="#535353" d="M220.13 65.07a3.438 3.438 0 0 1-3.29-3.54 3.44 3.44 0 0 1 3.52-3.29c1.88.08 3.35 1.66 3.29 3.54a3.433 3.433 0 0 1-3.52 3.29Zm2.83-3.43c0-1.51-1.22-2.73-2.73-2.74a2.736 2.736 0 0 0-.01 5.47h.01c1.51.01 2.74-1.2 2.75-2.7v-.03h-.02Z"/></g><defs><linearGradient id="b" x1="151" x2="151" y1=".5" y2="173.5" gradientUnits="userSpaceOnUse"><stop stop-color="#FFD86F" stop-opacity=".9"/><stop offset="1" stop-color="#FFD86F" stop-opacity="0"/></linearGradient><linearGradient id="c" x1="48.506" x2="122.593" y1="109.995" y2="109.995" gradientUnits="userSpaceOnUse"><stop offset="0" stop-color="#7CE1FF"/><stop offset=".176" stop-color="#80E2FF"/><stop offset=".354" stop-color="#8CE4FE"/><stop offset=".535" stop-color="#A1E8FD"/><stop offset=".717" stop-color="#BDEDFB"/><stop offset=".897" stop-color="#E2F4F9"/><stop offset="1" stop-color="#FAF8F7"/></linearGradient><linearGradient id="d" x1="147.902" x2="147.902" y1="93.379" y2="130.908" gradientUnits="userSpaceOnUse"><stop stop-color="#CEDCF2"/><stop offset="1" stop-color="#ABC2E9"/></linearGradient><linearGradient id="e" x1="108.616" x2="187.192" y1="109.995" y2="109.995" gradientUnits="userSpaceOnUse"><stop offset="0" stop-color="#9886FE"/><stop offset=".185" stop-color="#9C8AFE"/><stop offset=".373" stop-color="#A696FD"/><stop offset=".563" stop-color="#B8ABFC"/><stop offset=".754" stop-color="#D0C7FA"/><stop offset=".944" stop-color="#EFECF8"/><stop offset="1" stop-color="#FAF8F7"/></linearGradient><linearGradient id="f" x1="177.053" x2="253.494" y1="109.995" y2="109.995" gradientUnits="userSpaceOnUse"><stop stop-color="#FFD86F"/><stop offset=".169" stop-color="#FFD973"/><stop offset=".341" stop-color="#FEDC7F"/><stop offset=".515" stop-color="#FEE194"/><stop offset=".689" stop-color="#FDE7B0"/><stop offset=".863" stop-color="#FBF0D5"/><stop offset="1" stop-color="#FAF8F7"/></linearGradient><radialGradient id="g" cx="0" cy="0" r="1" gradientTransform="translate(86.626 61.672) scale(19.9489)" gradientUnits="userSpaceOnUse"><stop offset="0" stop-color="#FAF8F7"/><stop offset=".344" stop-color="#F8F8F7"/><stop offset=".51" stop-color="#F0F6F8"/><stop offset=".637" stop-color="#E3F4F8"/><stop offset=".745" stop-color="#D1F0FA"/><stop offset=".841" stop-color="#B9ECFB"/><stop offset=".927" stop-color="#9CE7FD"/><stop offset="1" stop-color="#7CE1FF"/></radialGradient><radialGradient id="h" cx="0" cy="0" r="1" gradientTransform="translate(153.423 61.672) scale(19.9489)" gradientUnits="userSpaceOnUse"><stop offset="0" stop-color="#FAF8F7"/><stop offset=".353" stop-color="#F8F6F7"/><stop offset=".523" stop-color="#F2EEF8"/><stop offset=".654" stop-color="#E6E1F8"/><stop offset=".765" stop-color="#D7CFFA"/><stop offset=".864" stop-color="#C2B7FB"/><stop offset=".951" stop-color="#A99AFD"/><stop offset="1" stop-color="#9886FE"/></radialGradient><radialGradient id="i" cx="0" cy="0" r="1" gradientTransform="translate(220.22 61.672) scale(19.9489)" gradientUnits="userSpaceOnUse"><stop offset="0" stop-color="#FAF8F7"/><stop offset=".337" stop-color="#FAF7F5"/><stop offset=".5" stop-color="#FAF6ED"/><stop offset=".625" stop-color="#FBF3E0"/><stop offset=".731" stop-color="#FCEECE"/><stop offset=".824" stop-color="#FCE9B6"/><stop offset=".909" stop-color="#FDE298"/><stop offset=".987" stop-color="#FFDA76"/><stop offset="1" stop-color="#FFD86F"/></radialGradient><clipPath id="a"><path fill="#fff" d="M.5.5h301v173H.5z"/></clipPath></defs></svg>