<svg width="100" height="100" viewBox="0 0 100 100" fill="none" xmlns="http://www.w3.org/2000/svg">
<g clip-path="url(#clip0_572_111)">
<rect width="100" height="100" rx="50" fill="black"/>
<circle cx="50" cy="50" r="50" fill="black"/>
<path d="M51.5417 17.2631C33.0552 17.2631 18.0833 32.235 18.0833 50.7215C18.0833 65.5276 27.6611 78.0323 40.9601 82.4633C42.633 82.7572 43.2585 81.7534 43.2585 80.8748C43.2585 80.0805 43.2178 77.4475 43.2178 74.6428C34.8125 76.1906 32.6391 72.5946 31.9699 70.7151C31.5917 69.752 29.9624 66.7815 28.5368 65.9872C27.3672 65.3588 25.6943 63.811 28.4961 63.7703C31.132 63.7295 33.0144 66.1967 33.6429 67.2005C36.6541 72.2629 41.4634 70.8373 43.3865 69.9586C43.6775 67.7853 44.5561 66.3218 45.5192 65.4839C38.0739 64.6489 30.297 61.7628 30.297 48.9642C30.297 45.3274 31.5917 42.3161 33.7243 39.9741C33.3897 39.1361 32.2202 35.7059 34.0589 31.1061C34.0589 31.1061 36.8607 30.2275 43.2614 34.5363C45.9381 33.7828 48.7806 33.4075 51.626 33.4075C54.4686 33.4075 57.314 33.7857 59.9906 34.5363C66.3914 30.1867 69.1903 31.1061 69.1903 31.1061C71.0319 35.7059 69.8594 39.1361 69.5248 39.9741C71.6574 42.3161 72.9551 45.2838 72.9551 48.9642C72.9551 61.8035 65.1345 64.646 57.6893 65.4839C58.9025 66.5313 59.947 68.5388 59.947 71.6752C59.947 76.1499 59.9063 79.7459 59.9063 80.8748C59.9063 81.7534 60.5347 82.8008 62.2047 82.4662C75.4252 78.0323 85.0001 65.4839 85.0001 50.7215C85.0001 32.235 70.0282 17.2631 51.5417 17.2631Z" fill="#F0F3F6"/>
</g>
<defs>
<clipPath id="clip0_572_111">
<rect width="100" height="100" rx="50" fill="white"/>
</clipPath>
</defs>
</svg>
