<svg width="100" height="100" viewBox="0 0 100 100" fill="none" xmlns="http://www.w3.org/2000/svg">
<g clip-path="url(#clip0_572_66)">
<circle cx="50" cy="50" r="50" fill="#F0F3F6"/>
<path d="M50.0001 33C42.4351 33 37.7317 36.7683 35.8334 44.3333C38.6667 40.565 41.9817 39.1483 45.7501 40.0833C47.9034 40.6217 49.4617 42.18 51.1617 43.9083C53.9384 46.7417 57.0834 50 64.1668 50C71.7318 50 76.4351 46.2317 78.3334 38.6667C75.5001 42.435 72.1851 43.8517 68.4168 42.9167C66.2634 42.3783 64.7334 40.82 63.0051 39.0917C60.2284 36.2583 57.0834 33 50.0001 33ZM35.8334 50C28.2684 50 23.5651 53.7683 21.6667 61.3333C24.5001 57.565 27.8151 56.1483 31.5834 57.0833C33.7367 57.6217 35.2667 59.18 36.9951 60.9083C39.7717 63.7417 42.9167 67 50.0001 67C57.5651 67 62.2684 63.2317 64.1668 55.6667C61.3334 59.435 58.0184 60.8517 54.2501 59.9167C52.0967 59.3783 50.5668 57.82 48.8384 56.0917C46.0617 53.2583 42.9167 50 35.8334 50Z" fill="#4EB9FA"/>
</g>
<defs>
<clipPath id="clip0_572_66">
<rect width="100" height="100" fill="white"/>
</clipPath>
</defs>
</svg>
