<svg width="100" height="100" viewBox="0 0 100 100" fill="none" xmlns="http://www.w3.org/2000/svg">
<rect width="100" height="100" rx="50" fill="#231C23"/>
<path d="M40.6124 40.6124H50.0001V21.8369H40.6124C35.4287 21.8369 31.2246 26.041 31.2246 31.2247C31.2246 36.4083 35.4287 40.6124 40.6124 40.6124Z" fill="#FF683C"/>
<path d="M40.6124 59.3878H50.0001V40.6123H40.6124C35.4287 40.6123 31.2246 44.8164 31.2246 50.0001C31.2246 55.1837 35.4287 59.3878 40.6124 59.3878Z" fill="#AB6AFF"/>
<path d="M40.6124 78.1632C45.796 78.1632 50.0001 73.9591 50.0001 68.7755V59.3877H40.6124C35.4287 59.3877 31.2246 63.5918 31.2246 68.7755C31.2246 73.9591 35.4287 78.1632 40.6124 78.1632Z" fill="#17DC90"/>
<path d="M50 40.6124H59.3878C64.5714 40.6124 68.7755 36.4083 68.7755 31.2247C68.7755 26.041 64.5714 21.8369 59.3878 21.8369H50V40.6124Z" fill="#FF8678"/>
<path d="M59.3878 59.3878C64.5714 59.3878 68.7755 55.1837 68.7755 50.0001C68.7755 44.8164 64.5714 40.6123 59.3878 40.6123C54.2041 40.6123 50 44.8164 50 50.0001C50 55.1837 54.2041 59.3878 59.3878 59.3878Z" fill="#51CDFF"/>
</svg>
