<svg width="644" height="693" viewBox="0 0 644 693" fill="none" xmlns="http://www.w3.org/2000/svg">
<path d="M323.148 237.312L329.044 239.91C360.231 253.656 407.586 275.427 448.323 296.094C468.66 306.412 487.586 316.574 502.088 325.4C509.315 329.798 515.716 334.028 520.729 337.911C523.235 339.852 525.599 341.864 527.615 343.911C529.494 345.819 531.754 348.435 533.291 351.648C544.347 374.765 580.092 456.199 605.925 523.762C619.901 560.316 617.548 591.512 600.996 613.911C584.742 635.905 557.393 645.829 528.909 645.834C399.166 646.284 120.933 646.344 99.3087 646.344C80.1256 646.344 57.6285 633.475 43.5927 613.392C28.8169 592.25 22.7457 562.464 37.1506 528.069C53.1751 489.806 70.0935 448.062 81.422 420.111C87.4722 405.182 91.928 394.188 93.8015 389.76C94.27 388.653 94.8219 387.285 95.4578 385.709L95.459 385.706C98.1555 379.023 102.361 368.602 108.109 358.444C115.227 345.866 125.802 331.564 141.481 323.071C161.599 312.174 267.46 262.985 317.298 240.009L323.148 237.312Z" fill="#6F7DFF"/>
<path fill-rule="evenodd" clip-rule="evenodd" d="M528.886 645.834C528.894 645.834 528.901 645.834 528.909 645.834C528.918 645.834 528.927 645.834 528.935 645.834C557.41 645.823 584.747 635.898 600.996 613.911C617.548 591.513 619.901 560.316 605.925 523.762C580.092 456.199 544.347 374.765 533.291 351.648C531.754 348.435 529.495 345.82 527.615 343.911C525.599 341.864 523.235 339.853 520.729 337.911C515.717 334.028 509.315 329.798 502.088 325.4C487.586 316.575 468.66 306.412 448.323 296.095C407.586 275.428 360.232 253.656 329.044 239.91L323.149 237.312L317.298 240.009C267.46 262.985 161.6 312.174 141.481 323.071C125.802 331.564 115.228 345.866 108.11 358.444C102.361 368.602 98.1558 379.023 95.4593 385.706L95.4581 385.709L95.4554 385.716C94.8206 387.289 94.2695 388.654 93.8017 389.76C91.9282 394.188 87.4725 405.183 81.4222 420.111C70.0938 448.062 53.1753 489.806 37.1509 528.069C22.7459 562.465 28.8172 592.25 43.5929 613.392C57.6287 633.475 80.1258 646.345 99.309 646.345C120.932 646.345 399.132 646.284 528.886 645.834ZM69.4697 375.288C68.8153 376.909 68.3678 378.016 68.0146 378.85C66.0578 383.476 61.5724 394.543 55.694 409.047L55.4725 409.594C44.1355 437.566 27.2764 479.163 11.3243 517.253C-6.81467 560.564 0.407417 600.479 20.6424 629.432C38.6653 655.22 68.9958 674.345 99.309 674.345C120.919 674.345 399.136 674.284 528.958 673.834C563.234 673.818 600.397 661.833 623.514 630.552C647.521 598.066 648.236 556.022 632.078 513.763C605.999 445.555 569.96 363.422 558.551 339.567C555.075 332.299 550.363 327.105 547.564 324.263C544.378 321.029 540.975 318.176 537.877 315.777C531.681 310.976 524.281 306.128 516.644 301.481C501.233 292.102 481.566 281.562 460.991 271.124C419.658 250.155 371.813 228.161 340.337 214.288L322.89 206.599L305.576 214.581C256.382 237.26 149.297 286.994 128.145 298.451C105.738 310.589 91.9371 330.171 83.7412 344.653C77.0799 356.424 72.3107 368.245 69.6192 374.917L69.4934 375.229L69.4924 375.231" fill="#191A19"/>
<path d="M449.419 296.956L449.609 296.734L463.667 303.522C433.956 333.137 413.879 337.806 400.884 341.971C424.327 326.144 435.83 312.763 449.419 296.956Z" fill="#191A19"/>
<path d="M193.624 297.8L193.434 297.578L179.376 304.365C209.087 333.981 229.164 338.65 242.159 342.815C218.716 326.988 207.213 313.607 193.624 297.8Z" fill="#191A19"/>
<path d="M585.031 577.731C574.093 567.768 534.048 556.832 520.765 576.559L524.672 556.05C539.361 539.643 561.916 545.568 571.357 550.581C567.19 550.125 557.996 550.581 554.558 556.05C571.591 559.176 581.971 571.806 585.031 577.731Z" fill="#191A19"/>
<path d="M59.2304 577.731C70.1684 567.768 110.214 556.832 123.497 576.559L119.59 556.05C104.9 539.643 82.3458 545.568 72.9047 550.581C77.0718 550.125 86.2655 550.581 89.7034 556.05C72.6703 559.176 62.291 571.806 59.2304 577.731Z" fill="#191A19"/>
<path d="M405.735 80.2879C394.14 57.8711 344.668 30.043 323.024 30.043C298.696 30.043 251.763 57.7038 239.617 80.2879C227.47 102.872 184.692 195.015 184.692 238.849C184.692 290.076 238.032 339.192 257.573 359.26C267.328 369.279 294.854 396.915 322.209 396.732C349.647 396.548 376.914 368.516 385.906 359.26L385.962 359.203C403.976 340.658 459.314 283.693 459.314 238.849C459.314 193.959 417.33 102.705 405.735 80.2879Z" fill="#6F7DFF"/>
<path fill-rule="evenodd" clip-rule="evenodd" d="M385.906 359.26C376.914 368.516 349.647 396.548 322.209 396.732C294.854 396.915 267.328 369.279 257.573 359.26C255.976 357.62 254.154 355.786 252.153 353.773C229.671 331.15 184.693 285.89 184.693 238.849C184.693 195.015 227.47 102.872 239.617 80.2881C251.764 57.7041 298.696 30.0432 323.025 30.0432C344.668 30.0432 394.14 57.8713 405.735 80.2881C417.33 102.705 459.314 193.959 459.314 238.849C459.314 283.693 403.977 340.658 385.962 359.203L385.906 359.26ZM407.512 380.136L407.708 379.934C416.809 370.566 436.354 350.446 453.708 326.535C470.151 303.879 489.358 271.606 489.358 238.849C489.358 210.15 476.742 171.278 464.933 140.407C452.582 108.12 438.727 78.6784 432.42 66.4854C427.03 56.065 418.587 47.2073 410.709 40.3372C402.461 33.1449 392.953 26.5182 383.427 20.8914C373.893 15.26 363.748 10.281 354.031 6.62376C344.921 3.1955 333.787 0 323.025 0C302.504 0 278.887 10.4203 261.339 20.9088C243.709 31.4464 223.164 47.4537 213.158 66.0573C206.443 78.5429 192.211 108.348 179.607 140.691C173.279 156.93 167.175 174.277 162.614 190.734C158.18 206.735 154.649 223.812 154.649 238.849C154.649 274.284 172.725 305.872 189.708 328.681C204.337 348.329 221.058 365.129 231.194 375.312C233.051 377.177 234.687 378.821 236.048 380.219C241.124 385.432 252.046 396.533 265.957 406.36C279.168 415.693 299.264 426.93 322.41 426.775C345.549 426.62 365.519 415.148 378.531 405.778C392.086 396.017 402.655 385.136 407.299 380.355L407.455 380.194L407.456 380.193L407.511 380.137L407.512 380.136Z" fill="#191A19"/>
<path d="M437.757 256.397C437.757 194.729 340.518 153.617 320.326 153.617C300.666 153.617 205.021 193.618 205.021 256.397C205.021 319.176 276.984 393.147 320.326 393.147C363.668 393.147 437.757 318.065 437.757 256.397Z" fill="#191A19"/>
<path d="M307.768 148.219C312.464 146.949 316.869 146.117 320.326 146.117C323.852 146.117 328.342 146.967 333.131 148.265C338.061 149.602 343.799 151.551 349.996 154.048C362.383 159.04 376.899 166.341 390.789 175.652C418.032 193.913 445.257 221.565 445.257 256.397C445.257 289.892 425.374 325.811 400.858 352.928C388.486 366.612 374.622 378.413 360.882 386.844C347.284 395.189 333.13 400.647 320.326 400.647C307.534 400.647 293.515 395.268 280.089 386.993C266.533 378.637 252.926 366.925 240.814 353.296C216.786 326.26 197.521 290.362 197.521 256.397C197.521 221.087 224.235 193.435 251.097 175.254C264.765 166.003 279.041 158.8 291.21 153.893C297.298 151.437 302.933 149.527 307.768 148.219Z" fill="#191A19"/>
<path d="M391.065 252.378C391.065 290.517 360.147 333.163 322.008 333.163C283.868 333.163 252.95 290.517 252.95 252.378C252.95 214.239 283.868 218.919 322.008 218.919C360.147 218.919 391.065 214.239 391.065 252.378Z" fill="white"/>
<path fill-rule="evenodd" clip-rule="evenodd" d="M156.946 399.208C124.797 399.208 99.5416 426.735 102.305 458.766L118.137 642.307C120.583 670.665 144.316 692.438 172.779 692.438H471.25C499.713 692.438 523.445 670.665 525.892 642.307L541.724 458.766C544.487 426.735 519.232 399.208 487.082 399.208H156.946ZM130.079 456.37C128.721 440.621 141.138 427.086 156.946 427.086H487.082C502.89 427.086 515.308 440.621 513.949 456.37L498.117 639.911C496.914 653.854 485.245 664.56 471.25 664.56H172.779C158.784 664.56 147.115 653.854 145.912 639.911L130.079 456.37Z" fill="#191A19"/>
<path fill-rule="evenodd" clip-rule="evenodd" d="M156.946 427.086C141.138 427.086 128.721 440.621 130.079 456.37L145.912 639.911C147.115 653.855 158.784 664.56 172.779 664.56H471.25C485.245 664.56 496.914 653.855 498.117 639.911L513.949 456.37C515.308 440.621 502.89 427.086 487.082 427.086H156.946Z" fill="white"/>
<path fill-rule="evenodd" clip-rule="evenodd" d="M331.847 472.5C331.847 467.112 327.478 462.743 322.089 462.743C316.701 462.743 312.332 467.112 312.332 472.5V484.798C312.332 490.186 316.701 494.555 322.089 494.555C327.478 494.555 331.847 490.186 331.847 484.798V472.5ZM274.826 488.048C271.015 484.238 264.837 484.238 261.027 488.048C257.216 491.859 257.216 498.037 261.027 501.847L269.722 510.542C273.533 514.353 279.711 514.353 283.521 510.542C287.331 506.732 287.331 500.554 283.521 496.744L274.826 488.048ZM235.729 549.124C235.729 543.736 240.098 539.367 245.487 539.367H257.784C263.173 539.367 267.541 543.736 267.541 549.124C267.541 554.513 263.173 558.882 257.784 558.882H245.487C240.098 558.882 235.729 554.513 235.729 549.124ZM386.449 539.368C381.06 539.368 376.691 543.737 376.691 549.125C376.691 554.514 381.06 558.883 386.449 558.883H398.746C404.135 558.883 408.503 554.514 408.503 549.125C408.503 543.737 404.135 539.368 398.746 539.368H386.449ZM383.202 488.044C387.012 491.855 387.012 498.033 383.202 501.843L374.506 510.539C370.696 514.349 364.518 514.349 360.707 510.539C356.897 506.728 356.897 500.55 360.707 496.74L369.403 488.044C373.213 484.234 379.391 484.234 383.202 488.044ZM322.121 507.128C312.539 507.127 303.211 510.213 295.519 515.927C287.827 521.641 282.179 529.681 279.413 538.855C276.647 548.029 276.908 557.851 280.159 566.865C283.315 575.615 289.124 583.153 296.766 588.432C297.217 588.744 297.755 588.903 298.303 588.903H345.939C346.488 588.903 347.025 588.744 347.476 588.432C355.118 583.153 360.928 575.615 364.083 566.865C367.334 557.851 367.596 548.029 364.829 538.855C362.063 529.681 356.415 521.641 348.723 515.927C341.031 510.213 331.703 507.127 322.121 507.128ZM344.423 600.519C344.423 598.21 342.551 596.337 340.242 596.337H304C301.691 596.337 299.819 598.21 299.819 600.519V603.772C299.819 609.687 302.168 615.359 306.351 619.542C310.533 623.724 316.206 626.074 322.121 626.074C328.036 626.074 333.709 623.724 337.891 619.542C342.074 615.359 344.423 609.687 344.423 603.772V600.519Z" fill="#191A19"/>
<path fill-rule="evenodd" clip-rule="evenodd" d="M322.12 526.643C316.73 526.642 311.483 528.378 307.156 531.592C302.83 534.806 299.653 539.329 298.097 544.489C296.541 549.65 296.688 555.174 298.516 560.245C299.761 563.696 301.739 566.811 304.292 569.389H339.95C342.503 566.811 344.482 563.696 345.726 560.245C347.555 555.174 347.702 549.65 346.146 544.489C344.59 539.329 341.413 534.806 337.086 531.592C332.759 528.378 327.512 526.642 322.122 526.643H322.12Z" fill="#6F7DFF"/>
</svg>
