<svg xmlns="http://www.w3.org/2000/svg" width="24" height="24" viewBox="0 0 24 24" fill="none">
    <path
        d="M17.13 9.68c-.07 0-.15 0-.22.01-1.37-4.04-5.13-6.94-9.58-6.94-4.89 0-8.95 3.48-9.91 8.1-.02.08-.03.17-.03.25 0 .17.01.34.03.51C2.27 11.85 6.18 15 10.9 15h6.23c2.76 0 5-2.24 5-5s-2.24-5-5-5z"
        fill="#f38020" />
    <path
        d="M12.42 21c4.97 0 9-4.03 9-9s-4.03-9-9-9c-3.04 0-5.74 1.51-7.36 3.82.86-.31 1.78-.48 2.74-.48 3.87 0 7 3.13 7 7 0 .97-.2 1.9-.56 2.74C15.74 19.49 14.04 21 12.42 21z"
        fill="#f68220" />
</svg> 