<?xml version="1.0" encoding="UTF-8"?>
<svg version="1.1" xmlns="http://www.w3.org/2000/svg" width="100" height="100">
<path d="M0 0 C8.64822802 6.87119486 15.44311132 18.01837448 17 29 C18.40895106 46.55709566 15.56638733 59.95954698 4.4140625 73.99609375 C-3.81286908 83.00558711 -15.56118495 88.6401856 -27.6484375 89.3125 C-44.13318085 89.87527929 -57.29779856 86.1831071 -69.75 74.8125 C-80.88341536 62.87619411 -83.80272194 49.59143924 -83.34375 33.85546875 C-82.66010765 21.18611097 -76.33281061 9.26446012 -67.0703125 0.625 C-46.64754218 -15.40494803 -20.73790664 -15.44661826 0 0 Z " fill="#010101" transform="translate(83,11)"/>
<path d="M0 0 C4.33125 -0.061875 8.6625 -0.12375 13.125 -0.1875 C14.47996582 -0.21481201 15.83493164 -0.24212402 17.23095703 -0.27026367 C18.85300049 -0.28150269 18.85300049 -0.28150269 20.5078125 -0.29296875 C21.60754395 -0.3086792 22.70727539 -0.32438965 23.84033203 -0.34057617 C28.11899056 0.12061442 31.48591134 1.58661082 34.64453125 4.53515625 C38.46950253 9.53704177 39.66162907 12.66726463 39 19 C37.39293034 23.17838113 35.43667476 26.11762762 32 29 C31.34 29 30.68 29 30 29 C30.30292969 29.5347998 30.60585938 30.06959961 30.91796875 30.62060547 C32.28305207 33.03627792 33.6415932 35.45556735 35 37.875 C35.47695312 38.71675781 35.95390625 39.55851562 36.4453125 40.42578125 C36.89648438 41.23144531 37.34765625 42.03710938 37.8125 42.8671875 C38.23144531 43.61081543 38.65039062 44.35444336 39.08203125 45.12060547 C40 47 40 47 40 49 C35.38 49 30.76 49 26 49 C25.608125 48.030625 25.21625 47.06125 24.8125 46.0625 C23.16147578 42.17306794 21.11575231 38.56416547 18.98828125 34.91796875 C18 33 18 33 18 31 C15.69 31 13.38 31 11 31 C11 36.61 11 42.22 11 48 C7.37 48 3.74 48 0 48 C0 32.16 0 16.32 0 0 Z " fill="#D1D1D1" transform="translate(31,26)"/>
<path d="M0 0 C11.47897324 -0.37028946 11.47897324 -0.37028946 13.86328125 1.32421875 C15.63321345 3.93350024 15.38278316 5.9377347 15 9 C13.86328125 10.67578125 13.86328125 10.67578125 12 12 C7.96740923 12.40487859 4.06287095 12.13106035 0 12 C0 8.04 0 4.08 0 0 Z " fill="#030303" transform="translate(43,36)"/>
</svg>
