<svg width="100" height="100" viewBox="0 0 100 100" fill="none" xmlns="http://www.w3.org/2000/svg">
<g clip-path="url(#clip0_572_61)">
<path d="M0 50C0 63.2608 5.26784 75.9785 14.6447 85.3553C24.0215 94.7322 36.7392 100 50 100C63.2608 100 75.9785 94.7322 85.3553 85.3553C94.7322 75.9785 100 63.2608 100 50C100 36.7392 94.7322 24.0215 85.3553 14.6447C75.9785 5.26784 63.2608 0 50 0C36.7392 0 24.0215 5.26784 14.6447 14.6447C5.26784 24.0215 0 36.7392 0 50Z" fill="#676BE5"/>
<path d="M45.4929 39.4304C45.4929 37.0911 47.4447 36.1893 50.5697 36.1893C55.762 36.3041 60.8569 37.622 65.4536 40.0393V25.9518C60.7187 24.0891 55.6682 23.1595 50.5804 23.2143C38.4375 23.2143 30.3572 29.55 30.3572 40.1447C30.3572 56.7072 53.0983 54.0215 53.0983 61.1661C53.0983 63.9358 50.6965 64.8268 47.3607 64.8268C41.6104 64.5051 36.0099 62.8724 30.9875 60.0536V73.5322C36.1562 75.7598 41.7236 76.9141 47.3518 76.925C59.7929 76.925 68.3625 71.5679 68.3625 60.8125C68.3625 42.9554 45.4965 46.159 45.4965 39.425" fill="white"/>
</g>
<defs>
<clipPath id="clip0_572_61">
<rect width="100" height="100" fill="white"/>
</clipPath>
</defs>
</svg>
