<svg xmlns="http://www.w3.org/2000/svg" width="302" height="174" fill="none"><g clip-path="url(#a)"><path fill="url(#b)" d="M276.5 173.5h-251c-13.81 0-25-11.19-25-25v-123c0-13.81 11.19-25 25-25h251c13.81 0 25 11.19 25 25v123c0 13.81-11.19 25-25 25Z"/><path fill="#7CE1FF" fill-rule="evenodd" stroke="#565656" stroke-miterlimit="10" stroke-width=".75" d="M204.46 75.92h16.97v-9.77l19.53 19.54-19.53 19.53v-9.77h-16.97V75.92Z" clip-rule="evenodd"/><path fill="url(#c)" fill-rule="evenodd" stroke="#565656" stroke-miterlimit="10" stroke-width=".75" d="M100.87 143.84c-6.89 0-12.47-25.8-12.47-57.62 0-31.82 5.58-57.62 12.47-57.62 6.89 0 12.47 25.8 12.47 57.62 0 31.82-5.58 57.62-12.47 57.62Z" clip-rule="evenodd"/><path fill="#C9FF85" fill-rule="evenodd" stroke="#565656" stroke-miterlimit="10" stroke-width=".75" d="m57.95 77.18 55.39-.83v19.69l-55.39.83V77.18Z" clip-rule="evenodd"/><path fill="url(#d)" fill-rule="evenodd" d="M196.24 110.59c-3.54.69-7.09 1.46-10.63 2.22-4.11.92-8.11 1.92-12 2.91l-6.74 1.76v-.08l1.71-.54c4.8-2.91 8.34-15.48 8.34-30.66 0-15.1-3.54-27.75-8.34-30.66l-1.71-.54v-.08l6.74 1.76c3.89 1 7.89 1.99 12 2.91 3.54.77 7.09 1.53 10.63 2.22l5.26 1-2.51-.46v.08c4.8 0 8.69 10.65 8.69 23.76 0 13.11-3.89 23.76-8.69 23.76v.08" clip-rule="evenodd"/><path stroke="#565656" stroke-miterlimit="10" stroke-width=".5" d="M196.24 110.59c-3.54.69-7.09 1.46-10.63 2.22-4.11.92-8.11 1.92-12 2.91l-6.74 1.76v-.08l1.71-.54c4.8-2.91 8.34-15.48 8.34-30.66 0-15.1-3.54-27.75-8.34-30.66l-1.71-.54v-.08l6.74 1.76c3.89 1 7.89 1.99 12 2.91 3.54.77 7.09 1.53 10.63 2.22l5.26 1-2.51-.46v.08c4.8 0 8.69 10.65 8.69 23.76 0 13.11-3.89 23.76-8.69 23.76v.08"/><path stroke="#565656" stroke-miterlimit="10" stroke-width=".75" d="M198.98 62.38v.08c4.8 0 8.69 10.65 8.69 23.76 0 13.11-3.89 23.76-8.69 23.76v.08m0-.08c-3.54.69-9.83 2.07-13.37 2.84-4.11.92-8.11 1.92-12 2.91l-6.74 1.76v-.08l1.71-.54c4.8-2.91 8.34-15.48 8.34-30.66 0-15.1-3.54-27.75-8.34-30.66l-1.71-.54v-.08l6.74 1.76c3.89 1 7.89 1.99 12 2.91 3.54.77 9.83 2.15 13.37 2.84"/><path fill="url(#e)" fill-rule="evenodd" stroke="#565656" stroke-miterlimit="10" stroke-width=".5" d="M133.45 128.45v-.08l2.29-.84c5.03-3.91 8.92-20.92 8.92-41.31s-3.89-37.4-8.92-41.31l-2.29-.84v-.08l4.23 1.53c7.55 2.84 15.67 5.52 24.24 7.97l4.92 1.3v.08l1.72.54c4.8 2.91 8.46 15.63 8.46 30.81 0 15.17-3.66 27.9-8.46 30.81l-1.72.54v.08l-4.92 1.3c-8.58 2.53-16.69 5.13-24.24 7.97l-4.23 1.53Z" clip-rule="evenodd"/><path stroke="#565656" stroke-miterlimit="10" stroke-width=".75" d="M133.45 128.45v-.08l2.29-.84c5.03-3.91 8.92-20.92 8.92-41.31s-3.89-37.4-8.92-41.31l-2.29-.84v-.08l4.23 1.53c7.55 2.84 15.67 5.52 24.24 7.97l4.92 1.3v.08l1.72.54c4.8 2.91 8.46 15.63 8.46 30.81 0 15.17-3.66 27.9-8.46 30.81l-1.72.54v.08l-4.92 1.3c-8.58 2.53-16.69 5.13-24.24 7.97l-4.23 1.53Z"/><path fill="url(#f)" fill-rule="evenodd" stroke="#565656" stroke-miterlimit="10" stroke-width=".5" d="m103.96 29.92 1.26.69c7.32 4.14 15.89 8.2 25.5 12.03l3.32 1.23 2.17.92c5.14 3.99 8.92 21 8.92 41.31 0 20.39-3.77 37.4-8.92 41.31l-2.17.84-3.32 1.38c-9.6 3.83-18.18 7.89-25.5 11.96l-1.26.77.91-1.07c5.03-7.28 8.69-29.2 8.69-55.18 0-25.9-3.66-47.82-8.69-55.1l-.91-1.09Z" clip-rule="evenodd"/><path stroke="#565656" stroke-miterlimit="10" stroke-width=".75" d="m103.96 29.92 1.26.69c7.32 4.14 15.89 8.2 25.5 12.03l3.32 1.23 2.17.92c5.14 3.99 8.92 21 8.92 41.31 0 20.39-3.77 37.4-8.92 41.31l-2.17.84-3.32 1.38c-9.6 3.83-18.18 7.89-25.5 11.96l-1.26.77.91-1.07c5.03-7.28 8.69-29.2 8.69-55.18 0-25.9-3.66-47.82-8.69-55.1l-.91-1.09Z"/><path fill="#565656" d="M167.74 85.57v.23c-.07.32-.28.53-.56.67-.17.09-.33.19-.51.3.18.11.34.21.51.3.28.15.49.35.56.67V88c-.08.32-.31.51-.59.67-1.51.88-3.01 1.77-4.52 2.66-.24.14-.48.3-.76.36h-.3c-.14-.06-.29-.1-.43-.18-1.32-.77-2.65-1.55-3.97-2.33l-1.02-.6c-.34-.21-.49-.54-.4-.89.06-.24.21-.41.41-.53.21-.12.42-.24.63-.37-.24-.15-.47-.27-.7-.42-.51-.33-.5-1.02 0-1.35.08-.05.16-.1.24-.14.15-.09.29-.17.45-.27-.22-.13-.43-.24-.63-.38-.13-.09-.26-.21-.34-.34-.23-.39-.07-.85.36-1.1 1.64-.97 3.28-1.93 4.92-2.9.42-.25.82-.25 1.24 0 1.6.94 3.19 1.89 4.79 2.82.28.16.5.35.59.67v.26c-.06.25-.19.45-.41.58l-.36.21c-.09.06-.19.11-.3.18.18.11.34.21.5.29.32.13.53.34.6.67Zm-6 1.22c.11-.04.21-.06.3-.11 1.66-.98 3.32-1.95 4.99-2.93.23-.14.23-.36 0-.49-1.66-.98-3.32-1.95-4.97-2.93a.579.579 0 0 0-.62 0c-1.65.97-3.31 1.95-4.96 2.92-.25.14-.25.36 0 .51 1.65.97 3.31 1.95 4.97 2.92.08.05.19.07.29.11Zm.01 4.37c.11-.04.22-.07.31-.12 1.65-.97 3.3-1.94 4.96-2.91.25-.15.25-.36-.01-.51-.26-.15-.51-.3-.77-.45-.08-.05-.13-.05-.21 0-1.22.72-2.44 1.43-3.66 2.16-.42.25-.83.25-1.25 0-1.22-.72-2.45-1.44-3.67-2.16-.05-.03-.1-.06-.17-.02-.27.17-.55.32-.83.49-.22.14-.22.35 0 .49 1.66.98 3.32 1.96 4.99 2.93.09.04.2.06.31.1Zm-.01-2.18c.11-.04.22-.06.31-.12 1.66-.97 3.31-1.95 4.97-2.92.25-.15.25-.36 0-.51-.26-.15-.52-.3-.78-.46-.08-.05-.13-.05-.21 0-1.22.72-2.44 1.43-3.66 2.16-.42.25-.83.25-1.25 0-1.22-.72-2.45-1.44-3.67-2.16-.07-.04-.12-.05-.19 0-.26.16-.53.31-.8.47-.23.14-.24.36 0 .49 1.66.98 3.32 1.96 4.99 2.93.08.05.19.08.29.12Zm-29.62-.92a4.184 4.184 0 0 1-5.74-6.07 4.194 4.194 0 0 1 5.6-.43c1.82 1.41 2.21 4.16.63 6.01l2.62 2.62-.49.49-2.62-2.62Zm-2.7-6.69c-1.93 0-3.5 1.56-3.5 3.49 0 1.93 1.57 3.51 3.5 3.51 1.92 0 3.5-1.57 3.5-3.5-.01-1.92-1.58-3.5-3.5-3.5Zm68.23 5c-.01.02-.02.04-.02.05-.1.34-.33.53-.68.58-.27.04-.53.07-.8.1-.07.01-.11.03-.13.1-.06.18-.14.35-.22.52-.03.07-.02.11.02.16.17.21.34.43.5.65.26.34.24.73-.06 1.04l-.75.75c-.31.3-.7.33-1.04.06l-.65-.5c-.05-.04-.09-.05-.16-.02-.17.08-.34.15-.51.21-.08.03-.11.07-.12.15-.03.29-.06.58-.11.87-.06.37-.36.61-.73.62h-1.08c-.44 0-.74-.27-.79-.7-.03-.27-.07-.53-.1-.8-.01-.07-.03-.1-.1-.12-.18-.07-.35-.14-.52-.21-.06-.03-.1-.03-.16.02l-.66.51c-.34.26-.73.23-1.04-.07l-.74-.74c-.3-.31-.33-.69-.07-1.04l.5-.65c.04-.06.05-.1.02-.17-.08-.17-.15-.34-.21-.51-.03-.07-.07-.1-.14-.11-.27-.03-.54-.06-.81-.1-.41-.06-.68-.36-.68-.78v-1.05c0-.43.27-.73.7-.78.27-.03.53-.07.8-.1.07-.01.11-.04.13-.11.06-.17.13-.34.21-.51.03-.07.03-.11-.02-.17-.17-.21-.34-.43-.5-.65-.26-.34-.24-.73.07-1.04l.75-.75c.3-.3.69-.33 1.03-.07l.65.5c.06.05.1.06.18.02.16-.08.33-.14.5-.2.08-.03.11-.07.12-.15.03-.27.06-.54.1-.8.05-.35.24-.58.59-.67.01 0 .03-.01.04-.02h1.36c.01.01.03.02.04.02.34.09.53.31.58.64.04.27.07.55.1.82.01.08.04.12.12.15.17.06.34.13.5.21.07.04.12.02.18-.02.21-.17.42-.33.64-.5.34-.26.73-.24 1.04.06l.75.75c.3.31.33.69.06 1.04l-.51.66c-.02.03-.03.09-.02.13.07.18.14.36.23.54.02.04.07.08.11.09.21.03.43.05.64.08.22.03.44.05.62.21.13.12.2.27.25.44v1.36Zm-6 4.82h.5c.2 0 .29-.08.32-.28l.12-.99a.32.32 0 0 1 .23-.28c.27-.1.54-.21.8-.33.14-.07.25-.06.38.04.26.21.52.4.78.61.17.13.27.13.42-.02.24-.23.47-.47.7-.7.15-.15.16-.25.03-.42-.21-.27-.42-.54-.63-.8-.08-.1-.08-.21-.03-.33.12-.27.24-.55.35-.83.05-.13.13-.2.27-.22l1-.12c.19-.03.27-.11.27-.31V85.2c0-.2-.08-.28-.28-.31-.33-.04-.67-.09-1-.12-.14-.02-.22-.09-.27-.22-.1-.27-.21-.54-.33-.81-.06-.14-.06-.25.04-.37.21-.26.4-.52.61-.78.14-.18.13-.27-.02-.43l-.7-.7c-.16-.16-.25-.16-.43-.03-.27.21-.53.41-.79.62-.11.08-.21.09-.34.03-.27-.12-.54-.24-.82-.34a.32.32 0 0 1-.23-.28l-.12-.99c-.03-.2-.11-.28-.32-.28h-1c-.2 0-.29.08-.32.28l-.12.99a.32.32 0 0 1-.23.28c-.27.1-.54.21-.81.33-.13.06-.24.06-.36-.03-.27-.21-.54-.42-.8-.63-.15-.12-.26-.11-.39.03-.24.24-.48.47-.71.71-.15.15-.16.25-.02.43.2.26.4.52.61.78.1.12.1.23.03.37-.12.26-.23.52-.33.79-.06.15-.14.23-.3.24-.33.03-.65.08-.98.12-.2.03-.27.11-.27.31v1.01c0 .2.08.29.27.31.33.04.66.09.99.12.15.02.23.09.29.23.1.27.21.54.33.8.06.14.06.25-.03.37-.21.26-.4.52-.61.78-.14.18-.13.27.02.43l.69.69c.17.17.26.17.45.02l.78-.6c.1-.08.2-.09.33-.04.27.12.55.24.83.35.15.05.21.14.23.29l.12.99c.03.19.11.27.3.27.16-.02.33-.02.5-.02Z"/><path fill="#565656" d="M191.58 88.19c-1.4-.07-2.49-1.22-2.42-2.58.06-1.39 1.22-2.48 2.58-2.42 1.4.06 2.49 1.22 2.42 2.58-.07 1.39-1.23 2.48-2.58 2.42Zm2.07-2.5c0-1.11-.89-2-1.99-2s-2 .88-2 1.99c0 1.11.89 2.01 2 2.01 1.1-.01 1.99-.9 1.99-2Z"/></g><defs><linearGradient id="b" x1="151" x2="151" y1=".5" y2="173.5" gradientUnits="userSpaceOnUse"><stop stop-color="#9886FE" stop-opacity=".65"/><stop offset="1" stop-color="#9886FE" stop-opacity=".1"/></linearGradient><linearGradient id="c" x1="88.396" x2="113.342" y1="86.221" y2="86.221" gradientUnits="userSpaceOnUse"><stop offset="0" stop-color="#FFD86F"/><stop offset=".166" stop-color="#FFD973"/><stop offset=".339" stop-color="#FEDC80"/><stop offset=".514" stop-color="#FEE194"/><stop offset=".692" stop-color="#FDE8B2"/><stop offset=".869" stop-color="#FBF0D7"/><stop offset="1" stop-color="#FAF8F7"/></linearGradient><linearGradient id="d" x1="166.863" x2="207.666" y1="86.221" y2="86.221" gradientUnits="userSpaceOnUse"><stop offset="0" stop-color="#FAF8F7"/><stop offset=".09" stop-color="#E5F4F8"/><stop offset=".278" stop-color="#C0EDFB"/><stop offset=".465" stop-color="#A2E8FD"/><stop offset=".65" stop-color="#8DE4FE"/><stop offset=".83" stop-color="#80E2FF"/><stop offset="1" stop-color="#7CE1FF"/></linearGradient><linearGradient id="e" x1="133.454" x2="177.019" y1="86.221" y2="86.221" gradientUnits="userSpaceOnUse"><stop offset="0" stop-color="#FAF8F7"/><stop offset=".041" stop-color="#F3EFF8"/><stop offset=".239" stop-color="#D2CAFA"/><stop offset=".436" stop-color="#B9ACFC"/><stop offset=".631" stop-color="#A797FD"/><stop offset=".82" stop-color="#9C8AFE"/><stop offset="1" stop-color="#9886FE"/></linearGradient><linearGradient id="f" x1="79.002" x2="154.854" y1="85.682" y2="87.05" gradientUnits="userSpaceOnUse"><stop offset="0" stop-color="#FAF8F7"/><stop offset=".104" stop-color="#FBF2DE"/><stop offset=".296" stop-color="#FCE9B7"/><stop offset=".485" stop-color="#FEE197"/><stop offset=".669" stop-color="#FEDC81"/><stop offset=".843" stop-color="#FFD974"/><stop offset="1" stop-color="#FFD86F"/></linearGradient><clipPath id="a"><path fill="#fff" d="M.5.5h301v173H.5z"/></clipPath></defs></svg>