<svg xmlns="http://www.w3.org/2000/svg" width="302" height="174" fill="none"><g clip-path="url(#a)"><path fill="url(#b)" d="M276.5 173.5h-251c-13.81 0-25-11.19-25-25v-123c0-13.81 11.19-25 25-25h251c13.81 0 25 11.19 25 25v123c0 13.81-11.19 25-25 25Z"/><path stroke="#535353" stroke-miterlimit="10" stroke-width=".75" d="M190.52 110.43c21.97 15.78 52.45 15.78 74.42 0m-148.84 0c21.97-15.78 52.45-15.78 74.42 0m-148.83 0c21.97 15.78 52.45 15.78 74.42 0"/><path fill="#FFD86F" stroke="#535353" stroke-miterlimit="10" stroke-width=".75" d="m79.05 77.04 8.88 12.31-8.88 15.15-8.89-15.15 8.89-12.31Z"/><path fill="#fff" d="M79.05 95.05c-1.48 0-2.93-.15-4.33-.43l4.33 7.12s2.23-3.67 4.33-7.12c-1.4.28-2.85.43-4.33.43Z"/><path fill="url(#c)" stroke="#535353" stroke-miterlimit="10" stroke-width=".75" d="M79.05 93.29c12.123 0 21.95-9.827 21.95-21.95s-9.827-21.95-21.95-21.95S57.1 59.217 57.1 71.34s9.827 21.95 21.95 21.95Z"/><path fill="url(#d)" stroke="#535353" stroke-miterlimit="10" stroke-width=".75" d="M79.05 87.25c8.787 0 15.91-7.123 15.91-15.91 0-8.787-7.123-15.91-15.91-15.91-8.787 0-15.91 7.123-15.91 15.91 0 8.787 7.123 15.91 15.91 15.91Z"/><path fill="#535353" d="M74.533 76.476c-.825 0-1.527-.225-2.107-.674-.58-.452-1.023-1.107-1.33-1.964-.306-.86-.46-1.9-.46-3.12 0-1.21.154-2.245.46-3.102.31-.86.755-1.517 1.335-1.97.584-.456 1.285-.684 2.102-.684s1.516.228 2.096.684c.583.453 1.028 1.11 1.335 1.97.31.858.465 1.892.465 3.103 0 1.218-.153 2.258-.46 3.119-.306.857-.75 1.512-1.33 1.965-.58.448-1.282.673-2.106.673Zm0-1.204c.817 0 1.452-.394 1.904-1.182.452-.788.679-1.912.679-3.371 0-.97-.104-1.797-.312-2.479-.205-.682-.5-1.202-.887-1.56a1.957 1.957 0 0 0-1.384-.536c-.81 0-1.443.4-1.9 1.198-.455.796-.683 1.921-.683 3.377 0 .97.102 1.795.306 2.473.205.679.498 1.195.881 1.549.387.354.852.53 1.396.53Zm9.915-10.157v11.207h-1.357v-9.784h-.066l-2.736 1.817v-1.38l2.802-1.86h1.357Z"/><path fill="#9886FE" stroke="#535353" stroke-miterlimit="10" stroke-width=".75" d="m152.3 54.55 8.88 12.3-8.88 15.16-8.89-15.16 8.89-12.3Z"/><path fill="#fff" d="M152.3 72.55c-1.48 0-2.93-.15-4.33-.43l4.33 7.12s2.23-3.67 4.33-7.12c-1.4.28-2.85.43-4.33.43Z"/><path fill="url(#e)" stroke="#535353" stroke-miterlimit="10" stroke-width=".75" d="M152.3 70.79c12.123 0 21.95-9.827 21.95-21.95s-9.827-21.95-21.95-21.95-21.95 9.827-21.95 21.95 9.827 21.95 21.95 21.95Z"/><path fill="url(#f)" stroke="#535353" stroke-miterlimit="10" stroke-width=".75" d="M152.3 64.75c8.787 0 15.91-7.123 15.91-15.91 0-8.787-7.123-15.91-15.91-15.91-8.787 0-15.91 7.123-15.91 15.91 0 8.787 7.123 15.91 15.91 15.91Z"/><path fill="#535353" d="M146.273 53.429c-.825 0-1.527-.225-2.107-.673-.58-.453-1.023-1.108-1.33-1.965-.306-.86-.459-1.9-.459-3.119 0-1.211.153-2.245.459-3.103.31-.86.756-1.517 1.336-1.97.583-.456 1.284-.684 2.101-.684s1.516.228 2.096.684c.583.453 1.029 1.11 1.335 1.97.31.857.465 1.892.465 3.103 0 1.218-.153 2.258-.46 3.12-.306.856-.749 1.511-1.329 1.964-.58.448-1.283.673-2.107.673Zm0-1.204c.817 0 1.452-.394 1.904-1.182.453-.788.679-1.912.679-3.371 0-.97-.104-1.797-.312-2.479-.204-.682-.5-1.202-.887-1.56a1.956 1.956 0 0 0-1.384-.536c-.81 0-1.443.4-1.899 1.199-.456.795-.684 1.92-.684 3.376 0 .97.102 1.795.306 2.473.205.679.498 1.195.882 1.549.386.354.851.53 1.395.53Zm5.976 1.05v-.984l3.699-4.05c.434-.474.791-.886 1.072-1.237.281-.353.489-.685.624-.996.139-.313.208-.642.208-.985 0-.394-.095-.735-.284-1.023a1.853 1.853 0 0 0-.767-.667 2.479 2.479 0 0 0-1.094-.236c-.43 0-.806.09-1.127.268a1.842 1.842 0 0 0-.739.74c-.171.317-.257.689-.257 1.115h-1.292c0-.656.152-1.233.455-1.729a3.154 3.154 0 0 1 1.236-1.16 3.731 3.731 0 0 1 1.768-.416c.656 0 1.238.139 1.745.416.507.277.905.651 1.193 1.122.289.47.433.994.433 1.57 0 .413-.075.816-.225 1.21-.146.39-.401.826-.766 1.308a23.357 23.357 0 0 1-1.505 1.75l-2.517 2.693v.088h5.21v1.203h-7.07Z"/><path fill="#7CE1FF" stroke="#535353" stroke-miterlimit="10" stroke-width=".75" d="m227.58 77.04 8.88 12.31-8.88 15.15-8.88-15.15 8.88-12.31Z"/><path fill="#fff" d="M227.58 95.05c-1.48 0-2.93-.15-4.33-.43l4.33 7.12s2.23-3.67 4.33-7.12c-1.4.28-2.85.43-4.33.43Z"/><path fill="url(#g)" stroke="#535353" stroke-miterlimit="10" stroke-width=".75" d="M227.58 93.29c12.123 0 21.95-9.827 21.95-21.95s-9.827-21.95-21.95-21.95-21.95 9.827-21.95 21.95 9.827 21.95 21.95 21.95Z"/><path fill="url(#h)" stroke="#535353" stroke-miterlimit="10" stroke-width=".75" d="M227.58 87.25c8.787 0 15.91-7.123 15.91-15.91 0-8.787-7.123-15.91-15.91-15.91-8.787 0-15.91 7.123-15.91 15.91 0 8.787 7.123 15.91 15.91 15.91Z"/><path fill="#535353" d="M221.327 76.788c-.824 0-1.526-.224-2.106-.673-.58-.452-1.024-1.107-1.33-1.965-.306-.86-.46-1.9-.46-3.119 0-1.21.154-2.245.46-3.102.31-.861.755-1.518 1.335-1.97.584-.456 1.284-.684 2.101-.684.818 0 1.516.228 2.096.684.584.452 1.029 1.109 1.336 1.97.31.857.465 1.891.465 3.102 0 1.219-.154 2.259-.46 3.12-.306.857-.75 1.512-1.33 1.964-.58.449-1.282.673-2.107.673Zm0-1.204c.818 0 1.452-.394 1.905-1.182.452-.788.678-1.911.678-3.37 0-.971-.104-1.797-.312-2.48-.204-.682-.499-1.202-.886-1.56a1.958 1.958 0 0 0-1.385-.535c-.809 0-1.442.4-1.898 1.198-.456.795-.684 1.92-.684 3.376 0 .97.102 1.795.306 2.474.204.678.498 1.195.881 1.548.387.354.852.531 1.395.531Zm9.763 1.204c-.722 0-1.366-.124-1.932-.372-.562-.248-1.009-.593-1.34-1.034a2.775 2.775 0 0 1-.537-1.549h1.379c.029.361.153.673.372.936.219.259.506.46.859.602.354.142.747.213 1.177.213.482 0 .908-.084 1.28-.252.373-.167.664-.4.876-.7.212-.3.317-.646.317-1.04 0-.412-.102-.775-.306-1.089-.204-.317-.503-.565-.897-.744-.394-.179-.876-.268-1.445-.268h-.898v-1.204h.898c.445 0 .835-.08 1.171-.24.339-.161.604-.387.793-.68a1.81 1.81 0 0 0 .29-1.028c0-.38-.083-.71-.251-.99a1.722 1.722 0 0 0-.712-.657c-.302-.157-.66-.235-1.072-.235a2.83 2.83 0 0 0-1.095.213 2.036 2.036 0 0 0-.831.608 1.58 1.58 0 0 0-.351.952h-1.313a2.67 2.67 0 0 1 .531-1.544 3.343 3.343 0 0 1 1.302-1.04 4.211 4.211 0 0 1 1.779-.371c.693 0 1.287.14 1.784.421a2.96 2.96 0 0 1 1.143 1.1c.267.456.4.948.4 1.477 0 .632-.166 1.17-.498 1.615a2.525 2.525 0 0 1-1.341.924v.088c.708.117 1.261.418 1.658.903.398.481.597 1.078.597 1.79a2.84 2.84 0 0 1-.498 1.641 3.387 3.387 0 0 1-1.346 1.138c-.57.278-1.217.416-1.943.416Z"/><path fill="url(#i)" stroke="#555" stroke-miterlimit="10" stroke-width=".75" d="M227.58 135.07c7.483 0 13.55-6.076 13.55-13.57 0-7.495-6.067-13.57-13.55-13.57-7.484 0-13.55 6.075-13.55 13.57 0 7.494 6.066 13.57 13.55 13.57Z"/><path fill="url(#j)" stroke="#555" stroke-miterlimit="10" stroke-width=".75" d="M152.3 112.17c7.483 0 13.55-6.075 13.55-13.57 0-7.494-6.067-13.57-13.55-13.57-7.483 0-13.55 6.076-13.55 13.57 0 7.495 6.067 13.57 13.55 13.57Z"/><path fill="url(#k)" stroke="#535353" stroke-miterlimit="10" stroke-width=".75" d="M79.05 134.95c7.484 0 13.55-6.075 13.55-13.57s-6.066-13.57-13.55-13.57c-7.483 0-13.55 6.075-13.55 13.57s6.067 13.57 13.55 13.57Z"/><path fill="#535353" d="M158.17 98.48v.23c-.07.32-.27.51-.55.66-.17.09-.32.19-.5.3.18.1.33.21.5.29.28.14.48.34.55.66v.25c-.08.31-.31.5-.58.66-1.48.86-2.95 1.73-4.42 2.6-.24.14-.47.29-.74.35h-.3c-.14-.06-.29-.1-.42-.18-1.3-.76-2.59-1.52-3.89-2.28-.33-.2-.67-.39-1-.59-.33-.2-.48-.52-.39-.88.06-.23.2-.4.4-.52s.41-.24.62-.37c-.24-.14-.46-.27-.68-.41-.49-.33-.49-1 0-1.32.08-.05.16-.09.24-.14.14-.08.29-.17.44-.26-.22-.13-.42-.24-.61-.37-.13-.09-.26-.2-.34-.33-.23-.38-.07-.83.35-1.08 1.61-.95 3.21-1.89 4.82-2.84.41-.24.8-.24 1.21 0 1.56.92 3.13 1.85 4.69 2.76.27.16.49.34.58.66v.25c-.06.24-.19.44-.41.57-.12.07-.24.14-.35.21-.09.06-.18.11-.29.17.18.1.33.2.49.29.31.14.51.34.58.66Zm-5.87 1.2c.1-.04.21-.06.29-.11 1.63-.95 3.25-1.91 4.88-2.87.23-.13.23-.35 0-.48-1.62-.96-3.25-1.91-4.87-2.87-.2-.12-.4-.12-.61 0-1.62.95-3.24 1.91-4.86 2.86-.24.14-.24.35 0 .5 1.62.95 3.24 1.91 4.86 2.86.1.05.2.07.31.11Zm0 4.28c.1-.04.21-.07.31-.12 1.62-.95 3.24-1.9 4.85-2.85.25-.15.24-.35-.01-.5-.25-.15-.5-.29-.75-.44-.07-.05-.13-.05-.2 0-1.19.71-2.39 1.4-3.59 2.11-.41.24-.81.25-1.22 0-1.2-.71-2.4-1.41-3.6-2.11-.05-.03-.1-.06-.16-.02l-.81.48c-.22.13-.22.35 0 .48 1.63.96 3.25 1.92 4.88 2.87.09.04.19.06.3.1Zm0-2.14c.1-.04.21-.06.3-.12 1.62-.95 3.24-1.91 4.86-2.86.24-.14.24-.35 0-.5-.25-.15-.51-.3-.76-.45-.08-.05-.13-.05-.2 0-1.19.71-2.39 1.4-3.59 2.11-.41.24-.81.25-1.22 0-1.2-.71-2.4-1.41-3.6-2.12-.07-.04-.12-.04-.18 0-.26.16-.52.31-.78.46-.23.14-.23.35 0 .48 1.63.96 3.25 1.92 4.88 2.87.08.07.19.09.29.13Zm-71.03 22.35a4.921 4.921 0 0 1-6.88-.51 4.905 4.905 0 0 1 .13-6.63 4.93 4.93 0 0 1 6.58-.5c2.14 1.66 2.6 4.89.75 7.06l3.08 3.08-.58.58-3.08-3.08Zm-3.18-7.86c-2.26 0-4.11 1.84-4.11 4.1 0 2.27 1.85 4.12 4.11 4.12 2.26 0 4.11-1.85 4.11-4.11 0-2.26-1.85-4.11-4.11-4.11Zm155.36 5.86c-.01.02-.02.03-.02.05-.09.34-.32.52-.66.56-.26.03-.52.07-.79.1-.07.01-.11.03-.13.1-.06.17-.13.34-.21.51-.03.06-.02.1.02.15.17.21.33.42.49.63.26.34.23.72-.06 1.01l-.73.73c-.3.3-.68.32-1.01.06-.21-.16-.42-.33-.63-.49-.05-.04-.09-.05-.15-.02-.16.08-.33.15-.5.21-.08.03-.1.07-.11.15-.03.28-.06.57-.11.85-.06.36-.35.6-.72.6h-1.06c-.43 0-.72-.26-.77-.69-.03-.26-.07-.52-.1-.78-.01-.06-.03-.1-.1-.12-.17-.06-.34-.13-.51-.21-.06-.03-.1-.03-.15.02-.21.17-.43.34-.64.5-.34.25-.71.23-1.01-.07l-.72-.72c-.3-.3-.32-.68-.07-1.01.16-.21.33-.42.49-.63.04-.05.05-.1.02-.16-.08-.16-.14-.33-.21-.5-.03-.07-.07-.1-.14-.11-.27-.03-.53-.06-.8-.1-.4-.05-.66-.35-.66-.76V121c0-.42.26-.72.68-.77.26-.03.52-.07.79-.1.07-.01.1-.04.13-.1.06-.17.13-.33.21-.5.03-.06.03-.11-.02-.16a26.9 26.9 0 0 1-.49-.63c-.26-.34-.23-.72.06-1.01l.73-.73c.3-.29.67-.32 1.01-.07.21.16.42.33.63.49.06.05.1.06.17.02.16-.08.32-.14.49-.2.08-.03.11-.07.11-.15.03-.26.06-.52.1-.78.05-.34.23-.56.57-.65.01 0 .03-.01.04-.02h1.33c.01.01.03.01.04.02.33.09.52.3.57.63.04.27.07.54.1.81.01.08.04.12.11.15.16.06.33.12.49.2.07.03.11.02.17-.02.21-.16.42-.33.62-.49.33-.26.72-.23 1.02.06l.73.73c.3.3.32.68.06 1.01-.16.22-.33.43-.5.65-.02.03-.03.09-.02.13.07.18.14.35.22.53.02.04.07.08.11.09.21.03.42.05.63.08.22.03.43.05.61.21.13.12.2.27.25.43v1.31Zm-5.88 4.72h.49c.2 0 .28-.08.31-.28l.12-.97c.02-.14.08-.22.22-.27.26-.1.53-.2.78-.32.14-.07.25-.06.37.03.25.2.51.4.76.59.17.13.26.12.41-.02l.69-.69c.15-.15.16-.25.03-.41l-.61-.79c-.08-.1-.08-.2-.03-.32.12-.27.23-.54.34-.81.05-.13.13-.2.27-.21l.98-.12c.19-.02.27-.11.27-.31V121c0-.19-.08-.28-.27-.3l-.98-.12c-.14-.02-.22-.08-.26-.22-.1-.27-.21-.53-.33-.79-.06-.14-.06-.24.03-.36.2-.25.4-.51.59-.76.13-.17.13-.27-.02-.42l-.68-.68c-.15-.15-.25-.16-.42-.03-.26.2-.52.4-.78.61-.11.08-.21.08-.33.03-.26-.12-.53-.23-.8-.33-.14-.05-.2-.13-.22-.27l-.12-.97c-.03-.2-.11-.27-.31-.27h-.98c-.2 0-.29.08-.31.27l-.12.97c-.02.14-.08.22-.22.27-.27.1-.53.21-.79.33-.13.06-.24.06-.35-.03-.26-.21-.52-.41-.79-.61-.15-.11-.25-.1-.38.03-.23.23-.47.46-.7.7-.15.15-.16.25-.02.42.2.25.39.51.59.76.09.12.1.22.03.36-.12.25-.23.51-.32.77-.05.15-.14.22-.3.24-.32.03-.64.08-.96.12-.19.03-.27.11-.27.3v.99c0 .19.08.28.27.3l.97.12c.15.02.23.09.28.23.1.26.2.53.32.78.06.14.06.24-.03.36-.2.25-.4.51-.59.76-.13.17-.13.27.02.42l.67.67c.17.17.26.17.44.02.25-.2.51-.39.76-.59.1-.08.2-.09.32-.03.27.12.54.24.81.34.14.05.21.14.22.28l.12.97c.02.19.11.26.3.26.18-.01.35-.01.51-.01Z"/><path fill="#535353" d="M227.5 123.95c-1.37-.06-2.43-1.2-2.37-2.53.06-1.36 1.2-2.43 2.52-2.37 1.37.06 2.44 1.2 2.37 2.53-.06 1.36-1.19 2.43-2.52 2.37Zm2.03-2.45a1.955 1.955 0 1 0-1.95 1.95 1.94 1.94 0 0 0 1.95-1.95Z"/></g><defs><radialGradient id="c" cx="0" cy="0" r="1" gradientTransform="translate(79.046 71.34) scale(21.9466)" gradientUnits="userSpaceOnUse"><stop stop-color="#FAF8F7"/><stop offset=".423" stop-color="#FAF8F5"/><stop offset=".575" stop-color="#FAF6EE"/><stop offset=".684" stop-color="#FBF3E3"/><stop offset=".771" stop-color="#FBEFD2"/><stop offset=".847" stop-color="#FCEABC"/><stop offset=".913" stop-color="#FDE4A0"/><stop offset=".972" stop-color="#FEDC81"/><stop offset="1" stop-color="#FFD86F"/></radialGradient><radialGradient id="d" cx="0" cy="0" r="1" gradientTransform="translate(79.046 71.34) scale(15.9143)" gradientUnits="userSpaceOnUse"><stop stop-color="#FAF8F7"/><stop offset=".423" stop-color="#FAF8F5"/><stop offset=".575" stop-color="#FAF6EE"/><stop offset=".684" stop-color="#FBF3E3"/><stop offset=".771" stop-color="#FBEFD2"/><stop offset=".847" stop-color="#FCEABC"/><stop offset=".913" stop-color="#FDE4A0"/><stop offset=".972" stop-color="#FEDC81"/><stop offset="1" stop-color="#FFD86F"/></radialGradient><radialGradient id="e" cx="0" cy="0" r="1" gradientTransform="translate(152.296 48.841) scale(21.9466)" gradientUnits="userSpaceOnUse"><stop stop-color="#FAF8F7"/><stop offset=".438" stop-color="#F8F6F7"/><stop offset=".596" stop-color="#F3EFF8"/><stop offset=".708" stop-color="#E8E4F8"/><stop offset=".799" stop-color="#DAD3F9"/><stop offset=".877" stop-color="#C7BDFB"/><stop offset=".945" stop-color="#B0A2FC"/><stop offset="1" stop-color="#9886FE"/></radialGradient><radialGradient id="f" cx="0" cy="0" r="1" gradientTransform="translate(152.296 48.841) scale(15.9143)" gradientUnits="userSpaceOnUse"><stop stop-color="#FAF8F7"/><stop offset=".438" stop-color="#F8F6F7"/><stop offset=".596" stop-color="#F3EFF8"/><stop offset=".708" stop-color="#E8E4F8"/><stop offset=".799" stop-color="#DAD3F9"/><stop offset=".877" stop-color="#C7BDFB"/><stop offset=".945" stop-color="#B0A2FC"/><stop offset="1" stop-color="#9886FE"/></radialGradient><radialGradient id="g" cx="0" cy="0" r="1" gradientTransform="translate(227.579 71.34) scale(21.9466)" gradientUnits="userSpaceOnUse"><stop stop-color="#FAF8F7"/><stop offset=".429" stop-color="#F8F8F7"/><stop offset=".584" stop-color="#F1F6F8"/><stop offset=".694" stop-color="#E6F4F8"/><stop offset=".783" stop-color="#D5F1F9"/><stop offset=".86" stop-color="#BFEDFB"/><stop offset=".927" stop-color="#A3E8FC"/><stop offset=".987" stop-color="#84E2FE"/><stop offset="1" stop-color="#7CE1FF"/></radialGradient><radialGradient id="h" cx="0" cy="0" r="1" gradientTransform="translate(227.579 71.34) scale(15.9143)" gradientUnits="userSpaceOnUse"><stop stop-color="#FAF8F7"/><stop offset=".429" stop-color="#F8F8F7"/><stop offset=".584" stop-color="#F1F6F8"/><stop offset=".694" stop-color="#E6F4F8"/><stop offset=".783" stop-color="#D5F1F9"/><stop offset=".86" stop-color="#BFEDFB"/><stop offset=".927" stop-color="#A3E8FC"/><stop offset=".987" stop-color="#84E2FE"/><stop offset="1" stop-color="#7CE1FF"/></radialGradient><radialGradient id="i" cx="0" cy="0" r="1" gradientTransform="translate(227.579 121.501) scale(13.5593)" gradientUnits="userSpaceOnUse"><stop stop-color="#FAF8F7"/><stop offset=".429" stop-color="#F8F8F7"/><stop offset=".584" stop-color="#F1F6F8"/><stop offset=".694" stop-color="#E6F4F8"/><stop offset=".783" stop-color="#D5F1F9"/><stop offset=".86" stop-color="#BFEDFB"/><stop offset=".927" stop-color="#A3E8FC"/><stop offset=".987" stop-color="#84E2FE"/><stop offset="1" stop-color="#7CE1FF"/></radialGradient><radialGradient id="j" cx="0" cy="0" r="1" gradientTransform="translate(152.296 98.599) scale(13.5593)" gradientUnits="userSpaceOnUse"><stop stop-color="#FAF8F7"/><stop offset=".438" stop-color="#F8F6F7"/><stop offset=".596" stop-color="#F3EFF8"/><stop offset=".708" stop-color="#E8E4F8"/><stop offset=".799" stop-color="#DAD3F9"/><stop offset=".877" stop-color="#C7BDFB"/><stop offset=".945" stop-color="#B0A2FC"/><stop offset="1" stop-color="#9886FE"/></radialGradient><radialGradient id="k" cx="0" cy="0" r="1" gradientTransform="translate(79.046 121.377) scale(13.5593)" gradientUnits="userSpaceOnUse"><stop stop-color="#FAF8F7"/><stop offset=".423" stop-color="#FAF8F5"/><stop offset=".575" stop-color="#FAF6EE"/><stop offset=".684" stop-color="#FBF3E3"/><stop offset=".771" stop-color="#FBEFD2"/><stop offset=".847" stop-color="#FCEABC"/><stop offset=".913" stop-color="#FDE4A0"/><stop offset=".972" stop-color="#FEDC81"/><stop offset="1" stop-color="#FFD86F"/></radialGradient><linearGradient id="b" x1="151" x2="151" y1=".5" y2="173.5" gradientUnits="userSpaceOnUse"><stop stop-color="#9886FE" stop-opacity=".65"/><stop offset="1" stop-color="#9886FE" stop-opacity="0"/></linearGradient><clipPath id="a"><path fill="#fff" d="M.5.5h301v173H.5z"/></clipPath></defs></svg>