<svg xmlns="http://www.w3.org/2000/svg" width="302" height="174" fill="none"><g clip-path="url(#a)"><path fill="url(#b)" d="M276.5 173.5h-251c-13.81 0-25-11.19-25-25v-123c0-13.81 11.19-25 25-25h251c13.81 0 25 11.19 25 25v123c0 13.81-11.19 25-25 25Z"/><path fill="#fff" d="M258.72 92.6v28.24c0 4.04-3.28 7.31-7.31 7.31h-28.24c-4.04 0-7.31-3.28-7.31-7.31V92.6c0-4.04 3.27-7.31 7.31-7.31h28.24c4.03 0 7.31 3.27 7.31 7.31Z"/><path fill="url(#c)" stroke="#535353" stroke-miterlimit="10" stroke-width=".75" d="M262.43 90.07a7.72 7.72 0 0 0-.38-2.47c0-.01-.01-.02-.01-.02-.06-.19-.13-.38-.21-.57a8.572 8.572 0 0 0-3.12-3.93L222.8 47.17a7.698 7.698 0 0 0-5.44-2.25h-34.19c-4.25 0-7.69 3.44-7.69 7.69V86.8c0 2.04.81 3.99 2.25 5.44l35.91 35.91c.96 1.4 2.33 2.49 3.93 3.12.19.08.38.14.57.21.01 0 .01.01.02.01.8.26 1.63.39 2.47.38h33.21c4.74 0 8.58-3.84 8.58-8.58V90.15c.02-.03.01-.05.01-.08Zm-3.71 30.77c0 4.04-3.27 7.31-7.31 7.31h-28.24c-4.04 0-7.31-3.27-7.31-7.31V92.6c0-4.04 3.27-7.31 7.31-7.31h28.24c4.04 0 7.31 3.27 7.31 7.31v28.24Z"/><path fill="url(#d)" d="M217.37 45.33c1.95 0 3.77.76 5.15 2.13l35.91 35.91.03.03.03.02c1.34.93 2.37 2.22 2.97 3.75.06.15.12.32.19.53l.01.03c.25.76.37 1.55.36 2.35v33.21c0 4.51-3.67 8.18-8.18 8.18h-33.3c-.76 0-1.52-.12-2.26-.36l-.02-.01h-.01c-.22-.07-.39-.13-.55-.2a8.16 8.16 0 0 1-3.74-2.97l-.02-.03-.03-.03L178 91.96a7.214 7.214 0 0 1-2.13-5.15v-34.2c0-4.02 3.27-7.28 7.28-7.28h34.22Zm0-.41h-34.19c-4.25 0-7.69 3.44-7.69 7.69V86.8c0 2.04.81 4 2.25 5.44l35.91 35.91c.96 1.4 2.33 2.49 3.93 3.12.19.08.38.14.57.21.01 0 .01.01.02.01.77.25 1.58.38 2.39.38h33.29c4.74 0 8.58-3.84 8.58-8.58V90.07a7.72 7.72 0 0 0-.38-2.47c0-.01-.01-.02-.01-.02-.06-.19-.13-.38-.21-.57a8.572 8.572 0 0 0-3.12-3.93L222.8 47.17a7.657 7.657 0 0 0-5.43-2.25Z"/><path fill="#fff" d="M191.554 74.413c-.923 0-1.708-.25-2.358-.753-.649-.506-1.145-1.239-1.488-2.198-.343-.964-.514-2.127-.514-3.491 0-1.356.171-2.513.514-3.472.347-.964.845-1.699 1.494-2.205.654-.51 1.438-.765 2.352-.765.915 0 1.696.255 2.346.765.653.506 1.151 1.241 1.494 2.205.347.96.52 2.117.52 3.472 0 1.364-.171 2.527-.514 3.49-.343.96-.839 1.693-1.488 2.199-.649.502-1.435.753-2.358.753Zm0-1.347c.915 0 1.625-.44 2.131-1.323.506-.882.76-2.139.76-3.772 0-1.086-.117-2.01-.35-2.774-.228-.764-.559-1.345-.992-1.745-.428-.4-.945-.6-1.549-.6-.906 0-1.615.446-2.125 1.34-.51.89-.765 2.15-.765 3.779 0 1.086.114 2.009.343 2.768.228.76.557 1.337.985 1.733.433.396.954.594 1.562.594Zm10.925 1.347c-.808 0-1.529-.138-2.162-.416-.628-.278-1.128-.664-1.5-1.158a3.117 3.117 0 0 1-.6-1.733h1.543c.033.404.172.754.417 1.047.244.29.565.515.961.674.396.16.835.239 1.317.239.539 0 1.016-.094 1.433-.282.416-.188.743-.449.979-.784a1.96 1.96 0 0 0 .356-1.163 2.19 2.19 0 0 0-.343-1.219c-.229-.355-.564-.633-1.005-.833-.441-.2-.979-.3-1.616-.3h-1.005v-1.347h1.005c.498 0 .935-.09 1.31-.27a2.1 2.1 0 0 0 .888-.759c.217-.326.325-.71.325-1.151 0-.425-.094-.794-.282-1.108a1.927 1.927 0 0 0-.796-.735c-.339-.176-.739-.264-1.2-.264-.433 0-.841.08-1.225.24a2.28 2.28 0 0 0-.931.679c-.241.294-.372.65-.392 1.065h-1.47a2.994 2.994 0 0 1 .594-1.726 3.746 3.746 0 0 1 1.458-1.164 4.707 4.707 0 0 1 1.99-.416c.776 0 1.441.157 1.996.471.556.31.982.72 1.28 1.231.298.51.447 1.062.447 1.654 0 .706-.185 1.308-.557 1.806-.367.498-.867.843-1.5 1.035v.098c.792.13 1.41.467 1.855 1.01.445.54.668 1.207.668 2.003a3.18 3.18 0 0 1-.557 1.837c-.368.539-.87.964-1.507 1.274-.637.31-1.361.465-2.174.465ZM191.184 54.02a.89.89 0 0 0-.415-.67c-.242-.16-.539-.24-.891-.24-.258 0-.483.042-.676.126a1.076 1.076 0 0 0-.449.343.824.824 0 0 0-.159.497c0 .156.037.29.111.4.075.11.172.203.289.276.118.072.241.132.37.18.128.045.247.082.355.11l.59.159c.152.04.32.095.506.165.187.07.366.165.537.287.172.119.314.272.426.46.111.187.167.417.167.69 0 .314-.082.598-.247.852a1.68 1.68 0 0 1-.716.605c-.312.15-.692.224-1.138.224-.417 0-.778-.067-1.083-.201a1.726 1.726 0 0 1-.715-.563 1.6 1.6 0 0 1-.293-.838h.727a.91.91 0 0 0 .222.546c.13.142.295.248.494.318.201.068.417.102.648.102.268 0 .51-.044.724-.13.214-.09.383-.213.508-.37a.875.875 0 0 0 .188-.556.682.682 0 0 0-.162-.472 1.189 1.189 0 0 0-.426-.295 4.49 4.49 0 0 0-.571-.2l-.716-.204c-.454-.13-.814-.317-1.079-.56-.265-.242-.398-.559-.398-.95 0-.326.088-.61.264-.853.178-.244.417-.433.716-.568a2.415 2.415 0 0 1 1.008-.204c.375 0 .709.067 1 .202.292.132.523.314.693.545.172.23.263.493.273.787h-.682Zm1.601-.83v-.625h4.363v.625h-1.829v5.192h-.705V53.19h-1.829Zm5.45 5.192v-5.817h3.51v.625h-2.806v1.966h2.624v.624h-2.624v1.977h2.852v.625h-3.556Zm4.78 0v-5.817h1.965c.456 0 .829.083 1.119.248.292.162.507.383.648.661.14.279.21.59.21.932 0 .343-.07.654-.21.934-.139.28-.353.504-.642.67-.29.165-.661.248-1.114.248h-1.408v-.625h1.386c.312 0 .563-.054.752-.162a.962.962 0 0 0 .412-.438c.087-.185.131-.394.131-.627 0-.233-.044-.441-.131-.625a.928.928 0 0 0-.415-.432c-.191-.106-.444-.159-.761-.159h-1.238v5.192h-.704ZM191.41 92.6v28.24c0 4.04-3.28 7.31-7.31 7.31h-28.24c-4.04 0-7.31-3.28-7.31-7.31V92.6c0-4.04 3.27-7.31 7.31-7.31h28.24c4.04 0 7.31 3.27 7.31 7.31Z"/><path fill="url(#e)" stroke="#535353" stroke-miterlimit="10" stroke-width=".75" d="M195.13 90.07a7.72 7.72 0 0 0-.38-2.47c0-.01-.01-.02-.01-.02-.06-.19-.13-.38-.21-.57a8.572 8.572 0 0 0-3.12-3.93L155.5 47.17a7.698 7.698 0 0 0-5.44-2.25h-34.19c-4.25 0-7.69 3.44-7.69 7.69V86.8c0 2.04.81 3.99 2.25 5.44l35.91 35.91c.96 1.4 2.33 2.49 3.93 3.12.19.08.38.14.57.21.01 0 .01.01.02.01.8.26 1.63.39 2.47.38h33.21c4.74 0 8.58-3.84 8.58-8.58V90.15c.01-.03.01-.05.01-.08Zm-3.72 30.77c0 4.04-3.27 7.31-7.31 7.31h-28.24c-4.04 0-7.31-3.27-7.31-7.31V92.6c0-4.04 3.27-7.31 7.31-7.31h28.24c4.04 0 7.31 3.27 7.31 7.31v28.24Z"/><path fill="url(#f)" d="M150.07 45.33c1.95 0 3.77.76 5.15 2.13l35.91 35.91.03.03.03.02c1.34.93 2.37 2.22 2.97 3.75.06.15.12.32.19.53l.01.03c.25.76.37 1.55.36 2.35v33.21c0 4.51-3.67 8.18-8.18 8.18h-33.3c-.76 0-1.52-.12-2.26-.36l-.02-.01h-.01c-.22-.07-.39-.13-.55-.2a8.16 8.16 0 0 1-3.74-2.97l-.02-.03-.03-.03-35.91-35.91a7.214 7.214 0 0 1-2.13-5.15v-34.2c0-4.02 3.27-7.28 7.28-7.28h34.22Zm0-.41h-34.19c-4.25 0-7.69 3.44-7.69 7.69V86.8c0 2.04.81 4 2.25 5.44l35.91 35.91c.96 1.4 2.33 2.49 3.93 3.12.19.08.38.14.57.21.01 0 .01.01.02.01.77.25 1.58.38 2.39.38h33.29c4.74 0 8.58-3.84 8.58-8.58V90.07a7.72 7.72 0 0 0-.38-2.47c0-.01-.01-.02-.01-.02-.06-.19-.13-.38-.21-.57a8.572 8.572 0 0 0-3.12-3.93L155.5 47.17a7.674 7.674 0 0 0-5.43-2.25Z"/><path fill="#fff" stroke="#535353" stroke-miterlimit="10" stroke-width=".75" d="m207.54 106.72-7.11 8.35h-9.02v-16.7h9.02l7.11 8.35Z"/><path fill="#9886FE" d="m203.49 106.72-2-2.34v4.7l2-2.36Z"/><path fill="#fff" d="M124.301 74.413c-.923 0-1.708-.25-2.358-.753-.649-.506-1.145-1.239-1.488-2.198-.343-.964-.514-2.127-.514-3.491 0-1.356.171-2.513.514-3.472.347-.964.845-1.699 1.495-2.205.653-.51 1.437-.765 2.351-.765.915 0 1.696.255 2.346.765.653.506 1.151 1.241 1.494 2.205.347.96.52 2.117.52 3.472 0 1.364-.171 2.527-.514 3.49-.343.96-.839 1.693-1.488 2.199-.649.502-1.435.753-2.358.753Zm0-1.347c.915 0 1.625-.44 2.131-1.323.507-.882.76-2.139.76-3.772 0-1.086-.117-2.01-.349-2.774-.229-.764-.56-1.345-.993-1.745-.428-.4-.945-.6-1.549-.6-.906 0-1.615.446-2.125 1.34-.51.89-.765 2.15-.765 3.779 0 1.086.114 2.009.343 2.768.228.76.557 1.337.986 1.733a2.23 2.23 0 0 0 1.561.594Zm6.687 1.176v-1.103l4.14-4.531c.486-.53.886-.992 1.2-1.384.315-.396.548-.768.699-1.115a2.7 2.7 0 0 0 .232-1.102c0-.441-.106-.823-.318-1.145a2.066 2.066 0 0 0-.857-.747 2.782 2.782 0 0 0-1.225-.264c-.482 0-.903.1-1.262.3a2.068 2.068 0 0 0-.827.827c-.191.355-.287.772-.287 1.25h-1.446c0-.735.17-1.38.509-1.936a3.53 3.53 0 0 1 1.384-1.298c.588-.31 1.247-.465 1.978-.465.735 0 1.386.155 1.953.465.568.31 1.013.729 1.335 1.255.323.527.484 1.113.484 1.758 0 .461-.084.912-.251 1.353-.163.437-.449.925-.857 1.464-.405.535-.966 1.188-1.684 1.96l-2.817 3.013v.097h5.83v1.348h-7.913Zm-7.109-20.222a.892.892 0 0 0-.414-.67c-.243-.16-.54-.24-.892-.24-.258 0-.483.042-.676.126a1.082 1.082 0 0 0-.449.343.824.824 0 0 0-.159.497c0 .156.037.29.111.4a.98.98 0 0 0 .29.276 2.1 2.1 0 0 0 .369.18c.129.045.247.082.355.11l.591.159c.151.04.32.095.505.165.188.07.367.165.537.287.172.119.314.272.426.46.112.187.168.417.168.69 0 .314-.083.598-.248.852a1.677 1.677 0 0 1-.715.605c-.313.15-.692.224-1.139.224-.417 0-.777-.067-1.082-.201a1.723 1.723 0 0 1-.716-.563 1.6 1.6 0 0 1-.292-.838h.727a.91.91 0 0 0 .221.546c.131.142.296.248.494.318.201.068.417.102.648.102.269 0 .51-.044.724-.13.214-.09.384-.213.509-.37a.88.88 0 0 0 .187-.556.682.682 0 0 0-.162-.472 1.189 1.189 0 0 0-.426-.295 4.437 4.437 0 0 0-.571-.2l-.716-.204c-.454-.13-.814-.317-1.079-.56-.265-.242-.397-.559-.397-.95 0-.326.088-.61.264-.853a1.76 1.76 0 0 1 .715-.568 2.423 2.423 0 0 1 1.009-.204c.375 0 .708.067.999.202.292.132.523.314.693.545.173.23.264.493.273.787h-.682Zm1.602-.83v-.625h4.362v.625h-1.829v5.192h-.704V53.19h-1.829Zm5.449 5.192v-5.817h3.51v.625h-2.806v1.966h2.625v.624h-2.625v1.977h2.852v.625h-3.556Zm4.78 0v-5.817h1.965c.457 0 .83.083 1.119.248.292.162.508.383.648.661.14.279.21.59.21.932 0 .343-.07.654-.21.934a1.56 1.56 0 0 1-.642.67c-.29.165-.661.248-1.113.248h-1.409v-.625h1.386c.312 0 .563-.054.753-.162a.965.965 0 0 0 .411-.438c.088-.185.131-.394.131-.627a1.43 1.43 0 0 0-.131-.625.93.93 0 0 0-.414-.432c-.191-.106-.445-.159-.761-.159h-1.239v5.192h-.704ZM124.11 92.6v28.24c0 4.04-3.28 7.31-7.31 7.31H88.56c-4.04 0-7.31-3.28-7.31-7.31V92.6c0-4.04 3.27-7.31 7.31-7.31h28.24c4.03 0 7.31 3.27 7.31 7.31Z"/><path fill="url(#g)" stroke="#535353" stroke-miterlimit="10" stroke-width=".75" d="M127.82 90.07a7.72 7.72 0 0 0-.38-2.47c0-.01-.01-.02-.01-.02-.06-.19-.13-.38-.21-.57a8.572 8.572 0 0 0-3.12-3.93L88.2 47.17a7.698 7.698 0 0 0-5.44-2.25H48.57c-4.25 0-7.69 3.44-7.69 7.69V86.8c0 2.04.81 3.99 2.25 5.44l35.91 35.91c.96 1.4 2.33 2.49 3.93 3.12.19.08.38.14.57.21.01 0 .01.01.02.01.8.26 1.63.39 2.47.38h33.21c4.74 0 8.58-3.84 8.58-8.58V90.15c.01-.03 0-.05 0-.08Zm-3.71 30.77c0 4.04-3.27 7.31-7.31 7.31H88.56c-4.04 0-7.31-3.27-7.31-7.31V92.6c0-4.04 3.27-7.31 7.31-7.31h28.24c4.04 0 7.31 3.27 7.31 7.31v28.24Z"/><path fill="url(#h)" d="M82.76 45.33c1.95 0 3.77.76 5.15 2.13l35.91 35.91.03.03.03.02c1.34.93 2.37 2.22 2.97 3.75.06.15.12.32.19.53l.01.03c.25.76.37 1.55.36 2.35v33.21c0 4.51-3.67 8.18-8.18 8.18h-33.3c-.76 0-1.52-.12-2.26-.36l-.02-.01h-.01c-.22-.07-.39-.13-.55-.2a8.16 8.16 0 0 1-3.74-2.97l-.02-.03-.03-.03-35.88-35.92a7.214 7.214 0 0 1-2.13-5.15V52.61c0-4.02 3.27-7.28 7.28-7.28h34.19Zm0-.41H48.57c-4.25 0-7.69 3.44-7.69 7.69V86.8c0 2.04.81 4 2.25 5.44l35.91 35.91c.96 1.4 2.33 2.49 3.93 3.12.19.08.38.14.57.21.01 0 .01.01.02.01.77.25 1.58.38 2.39.38h33.29c4.74 0 8.58-3.84 8.58-8.58V90.07a7.72 7.72 0 0 0-.38-2.47c0-.01-.01-.02-.01-.02-.06-.19-.13-.38-.21-.57a8.572 8.572 0 0 0-3.12-3.93L88.2 47.17a7.698 7.698 0 0 0-5.44-2.25Z"/><path fill="#fff" stroke="#535353" stroke-miterlimit="10" stroke-width=".75" d="m140.24 106.72-7.12 8.35h-9.01v-16.7h9.01l7.12 8.35Z"/><path fill="#FFD86F" d="m136.19 106.72-2-2.34v4.7l2-2.36Z"/><path fill="#fff" d="M58.963 74.413c-.922 0-1.708-.25-2.358-.753-.649-.506-1.145-1.239-1.488-2.198-.342-.964-.514-2.127-.514-3.491 0-1.356.172-2.513.514-3.472.348-.964.846-1.699 1.495-2.205.653-.51 1.437-.765 2.351-.765.915 0 1.697.255 2.346.765.653.506 1.151 1.241 1.494 2.205.347.96.52 2.117.52 3.472 0 1.364-.171 2.527-.514 3.49-.343.96-.839 1.693-1.488 2.199-.65.502-1.435.753-2.358.753Zm0-1.347c.915 0 1.625-.44 2.131-1.323.507-.882.76-2.139.76-3.772 0-1.086-.117-2.01-.35-2.774-.228-.764-.559-1.345-.991-1.745a2.19 2.19 0 0 0-1.55-.6c-.906 0-1.614.446-2.125 1.34-.51.89-.765 2.15-.765 3.779 0 1.086.114 2.009.343 2.768.228.76.557 1.337.986 1.733a2.23 2.23 0 0 0 1.561.594ZM70.06 61.7v12.542h-1.52v-10.95h-.073l-3.062 2.033v-1.543L68.54 61.7h1.519Zm-13.485-7.68a.891.891 0 0 0-.415-.67c-.242-.16-.54-.24-.892-.24-.257 0-.483.042-.676.126a1.08 1.08 0 0 0-.448.343.824.824 0 0 0-.16.497.71.71 0 0 0 .111.4.98.98 0 0 0 .29.276c.117.072.24.132.37.18.128.045.246.082.354.11l.591.159c.151.04.32.095.505.165.188.07.367.165.537.287a1.321 1.321 0 0 1 .594 1.15c0 .314-.082.598-.247.852a1.682 1.682 0 0 1-.716.605c-.312.15-.692.224-1.139.224-.416 0-.777-.067-1.082-.201a1.724 1.724 0 0 1-.716-.563 1.6 1.6 0 0 1-.292-.838h.727a.91.91 0 0 0 .221.546 1.2 1.2 0 0 0 .495.318 2 2 0 0 0 .647.102c.27 0 .51-.044.724-.13.214-.09.384-.213.509-.37a.875.875 0 0 0 .187-.556.682.682 0 0 0-.162-.472 1.187 1.187 0 0 0-.426-.295 4.467 4.467 0 0 0-.57-.2l-.716-.204c-.455-.13-.814-.317-1.08-.56-.265-.242-.397-.559-.397-.95 0-.326.088-.61.264-.853.178-.244.417-.433.716-.568a2.415 2.415 0 0 1 1.008-.204c.375 0 .708.067 1 .202.291.132.522.314.693.545.172.23.263.493.272.787h-.681Zm1.6-.83v-.625h4.363v.625H60.71v5.192h-.704V53.19h-1.83Zm5.45 5.192v-5.817h3.51v.625H64.33v1.966h2.624v.624H64.33v1.977h2.851v.625h-3.556Zm4.78 0v-5.817h1.966c.456 0 .829.083 1.119.248.291.162.507.383.647.661.14.279.21.59.21.932 0 .343-.07.654-.21.934-.138.28-.352.504-.642.67-.29.165-.66.248-1.113.248h-1.409v-.625h1.386c.313 0 .564-.054.753-.162a.966.966 0 0 0 .412-.438 1.46 1.46 0 0 0 .13-.627 1.44 1.44 0 0 0-.13-.625.932.932 0 0 0-.415-.432c-.191-.106-.445-.159-.761-.159H69.11v5.192h-.705Z"/><path fill="#535353" d="M179.98 106.53v.39c-.12.54-.47.87-.94 1.12-.28.15-.55.32-.85.5.3.18.57.35.85.5.47.24.82.58.94 1.12v.43c-.14.54-.52.85-.98 1.11-2.51 1.47-5.02 2.95-7.52 4.42-.4.24-.79.5-1.26.59h-.51c-.24-.1-.49-.17-.71-.3-2.21-1.29-4.41-2.58-6.61-3.88-.57-.33-1.13-.67-1.69-1.01-.57-.34-.81-.89-.67-1.49.09-.4.34-.68.69-.88.35-.2.69-.41 1.06-.62-.4-.24-.79-.46-1.16-.7-.84-.55-.84-1.7.01-2.25.13-.09.27-.16.4-.24.24-.14.49-.29.75-.44-.37-.22-.72-.4-1.04-.63-.22-.15-.44-.34-.57-.57-.39-.65-.12-1.41.6-1.84 2.73-1.61 5.47-3.22 8.2-4.83.69-.41 1.36-.41 2.06 0 2.66 1.57 5.32 3.14 7.98 4.7.46.27.84.58.98 1.12v.43c-.1.41-.32.75-.69.97l-.6.36c-.16.09-.31.19-.49.3.3.18.56.35.83.49.47.24.83.58.94 1.13Zm-9.99 2.04c.18-.07.35-.1.5-.19 2.77-1.62 5.54-3.25 8.3-4.88.39-.23.38-.59 0-.82-2.76-1.63-5.52-3.25-8.28-4.88-.35-.2-.69-.2-1.03 0-2.76 1.62-5.51 3.24-8.27 4.87-.41.24-.41.6 0 .84 2.76 1.62 5.51 3.25 8.27 4.86.15.09.33.13.51.2Zm0 7.27c.18-.07.36-.11.52-.21 2.75-1.61 5.5-3.23 8.25-4.85.42-.25.41-.6-.01-.85-.43-.25-.86-.5-1.28-.75-.13-.08-.22-.08-.35 0-2.03 1.2-4.07 2.39-6.1 3.59-.7.42-1.38.42-2.08.01-2.04-1.21-4.08-2.4-6.12-3.6-.09-.05-.16-.1-.28-.03-.45.28-.92.54-1.38.82-.37.23-.37.59.01.81 2.77 1.63 5.53 3.26 8.3 4.89.16.07.34.11.52.17Zm0-3.63c.18-.07.36-.11.51-.2 2.76-1.62 5.52-3.24 8.27-4.86.41-.24.41-.6 0-.84-.43-.26-.87-.5-1.29-.76-.13-.08-.22-.08-.35 0-2.03 1.2-4.07 2.39-6.1 3.59-.7.42-1.38.42-2.08 0-2.04-1.21-4.08-2.4-6.12-3.6-.11-.07-.2-.08-.31 0-.44.27-.88.52-1.33.79-.39.23-.39.59-.01.82 2.77 1.63 5.53 3.26 8.3 4.89.16.06.33.1.51.17Zm-64.32-1.75a6.6 6.6 0 0 1-9.23-.68 6.58 6.58 0 0 1 .17-8.89c2.33-2.46 6.16-2.74 8.83-.67 2.87 2.23 3.49 6.56 1 9.48 1.38 1.38 2.77 2.76 4.14 4.14-.27.27-.52.52-.78.77-1.35-1.37-2.74-2.76-4.13-4.15Zm-4.26-10.54c-3.04 0-5.52 2.47-5.52 5.5-.01 3.04 2.48 5.53 5.52 5.53 3.03 0 5.51-2.48 5.52-5.51-.01-3.04-2.49-5.52-5.52-5.52Zm145.95 8.31c-.01.03-.03.06-.04.09-.16.57-.55.88-1.13.96-.44.06-.89.11-1.34.16-.12.01-.18.06-.22.17-.11.29-.23.58-.36.86-.05.11-.03.18.04.26l.84 1.08c.44.57.4 1.22-.11 1.73-.41.42-.83.83-1.24 1.24-.51.5-1.16.54-1.73.1l-1.08-.84c-.09-.07-.15-.08-.26-.03-.28.13-.56.25-.85.35-.13.05-.18.12-.19.25-.05.48-.11.97-.19 1.45-.1.61-.6 1.02-1.22 1.03-.6.01-1.2 0-1.8 0-.73 0-1.23-.45-1.32-1.17-.05-.45-.11-.89-.16-1.34-.01-.11-.06-.17-.16-.21-.29-.11-.58-.23-.86-.36-.1-.05-.17-.05-.26.03-.36.29-.73.57-1.09.85-.57.43-1.22.39-1.73-.12l-1.23-1.23c-.51-.51-.55-1.16-.12-1.73l.84-1.08c.07-.09.09-.16.03-.28-.13-.28-.25-.56-.35-.85-.05-.12-.11-.17-.24-.18-.45-.05-.9-.1-1.36-.17-.69-.09-1.13-.6-1.13-1.3v-1.76c0-.72.45-1.22 1.16-1.31.45-.06.89-.11 1.34-.16.12-.01.18-.06.22-.18.11-.29.22-.57.35-.85.05-.11.05-.18-.03-.28l-.84-1.08c-.44-.57-.4-1.22.11-1.73.41-.42.83-.83 1.24-1.24.5-.5 1.15-.54 1.71-.12l1.08.84c.1.08.17.09.29.04.27-.13.55-.24.83-.34.13-.05.18-.12.19-.25.05-.45.1-.89.16-1.34.08-.58.4-.96.98-1.11.02-.01.05-.02.07-.03h2.27c.02.01.05.03.07.03.56.14.88.51.97 1.07.07.46.12.92.17 1.37.01.14.07.2.2.25.28.1.56.21.83.34.12.06.2.04.29-.04.35-.28.71-.55 1.06-.83.57-.44 1.22-.4 1.73.11.42.41.83.83 1.24 1.24.5.51.54 1.15.11 1.73-.28.37-.57.73-.85 1.1-.04.05-.05.16-.03.22.11.3.24.6.38.9.03.07.12.14.19.15.35.06.71.09 1.06.13.37.05.74.09 1.03.35.22.2.33.46.42.73.02.82.02 1.57.02 2.33Zm-10.01 8.03h.84c.34 0 .48-.13.53-.47.07-.55.14-1.1.2-1.65.03-.24.14-.38.38-.46.45-.17.9-.35 1.33-.55.24-.11.42-.1.63.06.43.34.86.67 1.29 1.01.28.22.45.21.7-.04l1.17-1.17c.25-.25.26-.42.05-.7-.35-.45-.69-.9-1.04-1.34-.14-.17-.14-.34-.05-.54.2-.46.4-.92.57-1.38.08-.22.22-.34.45-.36.56-.07 1.11-.13 1.67-.21.32-.04.46-.19.46-.52v-1.68c0-.33-.13-.47-.46-.52l-1.67-.21c-.23-.03-.37-.14-.45-.37-.17-.46-.35-.91-.56-1.35-.11-.23-.1-.41.06-.61.34-.43.67-.86 1.01-1.29.23-.29.22-.46-.04-.71l-1.16-1.16c-.26-.26-.42-.27-.71-.05-.44.34-.88.69-1.32 1.03-.18.14-.35.14-.56.05-.45-.2-.9-.4-1.37-.57-.23-.09-.35-.23-.38-.46-.06-.55-.13-1.1-.2-1.65-.04-.34-.19-.47-.53-.47h-1.66c-.34 0-.49.13-.53.47-.07.55-.14 1.1-.2 1.65-.03.24-.14.38-.38.46-.46.17-.91.35-1.35.56-.22.1-.4.1-.59-.05-.44-.35-.89-.7-1.34-1.04-.25-.19-.43-.18-.65.05-.4.39-.79.79-1.19 1.19-.26.26-.27.42-.04.71.34.43.67.87 1.01 1.29.16.2.16.38.06.61-.2.43-.39.87-.54 1.31-.09.26-.24.38-.5.41-.54.06-1.08.13-1.63.2-.33.04-.46.19-.46.52v1.68c0 .33.13.47.46.52.55.07 1.1.14 1.65.2.25.03.39.15.48.39.16.45.35.9.55 1.33.11.23.1.41-.06.61-.34.43-.67.86-1.01 1.29-.23.29-.22.45.04.71l1.15 1.15c.28.28.44.29.76.04.43-.34.86-.67 1.29-1.01.17-.13.34-.15.54-.06.46.2.92.4 1.38.58.24.09.35.24.38.48.06.55.13 1.1.2 1.65.04.32.19.44.51.45.27-.01.55-.01.83-.01Z"/><path fill="#535353" d="M237.23 111.26c-2.33-.11-4.14-2.04-4.04-4.3.1-2.32 2.04-4.13 4.29-4.03 2.33.1 4.15 2.04 4.04 4.3-.1 2.32-2.04 4.13-4.29 4.03Zm3.46-4.16a3.32 3.32 0 0 0-3.32-3.33c-1.84 0-3.33 1.47-3.34 3.32a3.318 3.318 0 0 0 3.33 3.34 3.335 3.335 0 0 0 3.33-3.33Z"/></g><defs><linearGradient id="b" x1="151" x2="151" y1=".5" y2="173.5" gradientUnits="userSpaceOnUse"><stop stop-color="#7CE1FF" stop-opacity=".9"/><stop offset="1" stop-color="#7CE1FF" stop-opacity=".1"/></linearGradient><linearGradient id="c" x1="180.879" x2="259.163" y1="48.722" y2="130.077" gradientUnits="userSpaceOnUse"><stop stop-color="#7CE1FF"/><stop offset=".273" stop-color="#7CE1FF"/><stop offset=".432" stop-color="#93E5FE"/><stop offset=".762" stop-color="#CDF0FA"/><stop offset="1" stop-color="#FAF8F7"/></linearGradient><linearGradient id="d" x1="172.71" x2="263.434" y1="45.493" y2="129.806" gradientUnits="userSpaceOnUse"><stop stop-color="#fff" stop-opacity="0"/><stop offset="1" stop-color="#fff" stop-opacity=".3"/></linearGradient><linearGradient id="e" x1="113.574" x2="191.859" y1="48.722" y2="130.077" gradientUnits="userSpaceOnUse"><stop stop-color="#9886FE"/><stop offset=".273" stop-color="#9886FE"/><stop offset=".447" stop-color="#AB9DFD"/><stop offset=".808" stop-color="#DDD7F9"/><stop offset="1" stop-color="#FAF8F7"/></linearGradient><linearGradient id="f" x1="105.405" x2="196.129" y1="45.493" y2="129.806" gradientUnits="userSpaceOnUse"><stop stop-color="#fff" stop-opacity="0"/><stop offset="1" stop-color="#fff" stop-opacity=".3"/></linearGradient><linearGradient id="g" x1="46.27" x2="124.554" y1="48.722" y2="130.077" gradientUnits="userSpaceOnUse"><stop stop-color="#FFD86F"/><stop offset=".273" stop-color="#FFD86F"/><stop offset=".421" stop-color="#FEDD86"/><stop offset=".73" stop-color="#FCEBC0"/><stop offset="1" stop-color="#FAF8F7"/></linearGradient><linearGradient id="h" x1="38.101" x2="128.825" y1="45.493" y2="129.806" gradientUnits="userSpaceOnUse"><stop stop-color="#fff" stop-opacity="0"/><stop offset="1" stop-color="#fff" stop-opacity=".3"/></linearGradient><clipPath id="a"><path fill="#fff" d="M.5.5h301v173H.5z"/></clipPath></defs></svg>